<?xml version="1.0" encoding="UTF-8"?>
<svg version="1.1" xmlns="http://www.w3.org/2000/svg" width="1024" height="1024">
<path d="M0 0 C1.90550403 0.0179201 3.81106032 0.03004097 5.71661377 0.04156494 C8.65291965 0.06788152 11.58552886 0.1278768 14.52081299 0.20709229 C15.32889404 0.21273193 16.1369751 0.21837158 16.96954346 0.22418213 C21.25484212 0.39364664 24.38266672 1.16801297 27.62916565 4.0431366 C31.07563651 8.72752913 31.87135354 14.86273294 33.16925049 20.43756104 C33.51750643 21.86098378 33.86768536 23.2839373 34.21969604 24.70643616 C35.13728672 28.43775643 36.02743735 32.17510912 36.91229248 35.91430664 C37.82015481 39.72649628 38.75627208 43.53173241 39.68878174 47.33795166 C41.04256547 52.88773776 42.38761195 58.43947693 43.70977783 63.99688721 C43.97591888 65.11431808 44.24205994 66.23174896 44.51626587 67.38304138 C45.08331299 70.01959229 45.08331299 70.01959229 45.08331299 72.01959229 C46.19899658 72.14914307 46.19899658 72.14914307 47.33721924 72.28131104 C78.10436439 76.24071933 109.30593288 84.79333569 138.02471924 96.48834229 C140.55967414 97.14252419 141.62577574 96.91698867 144.08331299 96.01959229 C146.25718186 94.27526227 146.25718186 94.27526227 148.38409424 92.04693604 C149.19684814 91.22902588 150.00960205 90.41111572 150.84698486 89.56842041 C151.68809814 88.70668213 152.52921143 87.84494385 153.39581299 86.95709229 C154.22532471 86.12242432 155.05483643 85.28775635 155.90948486 84.42779541 C160.3181016 79.96350553 164.57624615 75.42330687 168.63018799 70.6338501 C170.56760991 68.48159308 172.8085356 66.80252592 175.08331299 65.01959229 C175.80518799 64.11209229 176.52706299 63.20459229 177.27081299 62.26959229 C177.86893799 61.52709229 178.46706299 60.78459229 179.08331299 60.01959229 C179.74331299 60.01959229 180.40331299 60.01959229 181.08331299 60.01959229 C181.74331299 58.69959229 182.40331299 57.37959229 183.08331299 56.01959229 C183.74331299 56.01959229 184.40331299 56.01959229 185.08331299 56.01959229 C185.08331299 55.35959229 185.08331299 54.69959229 185.08331299 54.01959229 C185.74331299 54.01959229 186.40331299 54.01959229 187.08331299 54.01959229 C187.33081299 53.40084229 187.57831299 52.78209229 187.83331299 52.14459229 C189.31102061 49.63248933 190.52286476 49.25851885 193.08331299 48.01959229 C193.41331299 47.02959229 193.74331299 46.03959229 194.08331299 45.01959229 C196.40608632 42.60748152 197.81513884 42.05400854 201.15753174 41.62506104 C206.43227237 42.15515935 209.80387545 44.28749665 214.27081299 47.01959229 C216.13357932 48.1220253 217.99689039 49.22353824 219.86065674 50.32427979 C221.3570166 51.2171167 221.3570166 51.2171167 222.88360596 52.12799072 C228.05833653 55.18718594 233.29075038 58.14451661 238.51806641 61.11251831 C247.08185313 65.98153252 255.63125729 70.87751793 264.14581299 75.83209229 C265.1623999 76.41724609 265.1623999 76.41724609 266.19952393 77.01422119 C267.8488828 77.98032383 269.46861891 78.99660546 271.08331299 80.01959229 C271.74202393 80.43595947 272.40073486 80.85232666 273.07940674 81.28131104 C274.8936476 84.42270085 273.85467437 87.66292833 273.08331299 91.01959229 C271.9328638 95.22608716 270.60846525 99.36935165 269.27081299 103.51959229 C268.46323387 106.07900204 267.65722127 108.63886565 266.85284424 111.19927979 C266.63744995 111.88283539 266.42205566 112.56639099 266.20013428 113.2706604 C263.51237008 121.80909834 260.88213398 130.36488677 258.28390503 138.93096924 C257.73388879 140.73880733 257.18048574 142.5456185 256.62368774 144.35137939 C255.83900144 146.89722054 255.06535785 149.44617323 254.29425049 151.99615479 C254.0551445 152.76364044 253.81603851 153.5311261 253.56968689 154.3218689 C252.23130374 158.64751246 252.23130374 158.64751246 253.08331299 163.01959229 C254.39524514 163.72744556 255.73182284 164.39054809 257.08331299 165.01959229 C258.6806488 166.36296082 258.6806488 166.36296082 260.24029541 167.91778564 C260.83158737 168.50277328 261.42287933 169.08776093 262.03208923 169.69047546 C262.66129776 170.32373245 263.29050629 170.95698944 263.93878174 171.60943604 C264.59985428 172.26859512 265.26092682 172.92775421 265.94203186 173.60688782 C267.34225431 175.00574974 268.73995606 176.40713869 270.13531494 177.81085205 C272.23890477 179.92502356 274.35277635 182.02847562 276.46807861 184.13092041 C283.09830503 190.75496869 289.50608197 197.37777209 295.29205322 204.76300049 C297.09078025 207.02899938 298.98871847 209.15153322 300.95831299 211.26959229 C306.52621352 217.43485866 311.25001798 224.27607958 316.08331299 231.01959229 C323.82359446 230.43143054 330.94359832 228.10366882 338.32159424 225.80084229 C339.69285254 225.3781104 341.06429031 224.95596025 342.43589783 224.53436279 C346.02531385 223.42932599 349.6121968 222.31628091 353.1986084 221.20153809 C356.85458387 220.06683396 360.5130233 218.94013212 364.17120361 217.81256104 C376.65720517 214.00936158 376.65720517 214.00936158 389.08331299 210.01959229 C394.16471615 209.26987706 394.16471615 209.26987706 397.08331299 210.01959229 C402.69743452 215.26799706 406.18783785 223.24490037 409.83331299 229.89459229 C410.44529541 230.99939941 411.05727783 232.10420654 411.68780518 233.24249268 C412.91975331 235.46745296 414.14929084 237.69374988 415.37628174 239.92144775 C417.28298603 243.38198514 419.20248499 246.83521915 421.12554932 250.28668213 C422.31739136 252.42848035 423.5031501 254.57357036 424.68878174 256.71881104 C426.39517282 259.79886474 428.13239691 262.8596201 429.88409424 265.91412354 C430.34590088 266.72631348 430.80770752 267.53850342 431.2835083 268.37530518 C432.16483763 269.92426516 433.05306978 271.46932657 433.94952393 273.00958252 C436.19151835 276.9686455 437.94830918 280.3619609 438.08331299 285.01959229 C436.81403624 287.62241297 435.20000486 288.9521258 433.08331299 291.01959229 C432.42331299 291.01959229 431.76331299 291.01959229 431.08331299 291.01959229 C431.08331299 291.67959229 431.08331299 292.33959229 431.08331299 293.01959229 C429.61456299 294.46490479 429.61456299 294.46490479 427.58331299 296.14459229 C423.73338959 299.3985311 420.22266964 302.86731946 416.74737549 306.51568604 C415.08331299 308.01959229 415.08331299 308.01959229 413.08331299 308.01959229 C412.82823975 308.61175537 412.5731665 309.20391846 412.31036377 309.81402588 C410.95628228 312.24792404 409.58816287 313.53869372 407.45050049 315.30865479 C403.23833413 318.87484164 399.21669753 322.60227857 395.20831299 326.39459229 C389.23774395 332.01990062 383.21169874 337.566229 377.08331299 343.01959229 C378.56499512 348.53284373 380.07441533 354.0341251 381.69659424 359.50787354 C388.63978026 383.15042659 395.17568193 408.24241869 395.08331299 433.01959229 C396.4248645 433.32328735 396.4248645 433.32328735 397.79351807 433.63311768 C410.91690531 436.64378276 423.94509814 440.01640648 436.9619751 443.4553833 C439.51918823 444.12792003 442.07814763 444.79384875 444.63873291 445.45343018 C448.37834678 446.41727269 452.11200706 447.40167179 455.84503174 448.39068604 C456.98566574 448.68043808 458.12629974 448.97019012 459.30149841 449.26872253 C465.40749857 450.91302621 469.67037928 452.41346671 474.08331299 457.01959229 C475.56274967 459.97846565 475.2269945 462.6420859 475.2444458 465.94439697 C475.24941071 466.65681549 475.25437561 467.36923401 475.25949097 468.10324097 C475.27412465 470.46599283 475.28091761 472.8286775 475.28643799 475.19146729 C475.29218976 476.83333335 475.29794749 478.4751994 475.30371094 480.11706543 C475.31422525 483.56374423 475.32006466 487.01039969 475.32354736 490.45709229 C475.32902401 494.86660477 475.35303228 499.27580721 475.38151932 503.68522263 C475.40017725 507.07906992 475.40535304 510.47284313 475.40688324 513.86673737 C475.40990468 515.49179016 475.41791603 517.1168418 475.43106842 518.74184418 C475.44819051 521.0205361 475.44623369 523.2984787 475.4397583 525.57720947 C475.44340393 526.87245544 475.44704956 528.16770142 475.45080566 529.50219727 C475.04323233 533.40321761 474.25731568 535.76024706 472.08331299 539.01959229 C469.86447144 540.34622192 469.86447144 540.34622192 467.24981689 541.15582275 C466.26716858 541.46840027 465.28452026 541.78097778 464.27209473 542.10302734 C463.21979675 542.40549377 462.16749878 542.70796021 461.08331299 543.01959229 C459.49930695 543.48561859 459.49930695 543.48561859 457.88330078 543.96105957 C454.40399758 544.955685 450.91458451 545.90322756 447.41925049 546.83990479 C446.14659332 547.18463837 444.87393616 547.52937195 443.56271362 547.884552 C440.8893699 548.60843485 438.21521345 549.32919931 435.54034424 550.04742432 C432.13578544 550.96165578 428.73287512 551.88184964 425.33049583 552.80415535 C422.04822303 553.69345647 418.76498404 554.5791569 415.48175049 555.46490479 C414.27215668 555.79201447 413.06256287 556.11912415 411.8163147 556.45614624 C405.5969599 558.12510317 399.38246344 559.6818311 393.08331299 561.01959229 C392.87577393 562.04052979 392.66823486 563.06146729 392.45440674 564.11334229 C386.66051046 591.77765867 377.53802587 618.22400123 366.08331299 644.01959229 C367.01470093 644.46311035 367.01470093 644.46311035 367.96490479 644.91558838 C370.41055917 646.19013593 371.96948404 647.6751073 373.89581299 649.64459229 C374.5210083 650.27623291 375.14620361 650.90787354 375.79034424 651.55865479 C377.68422509 653.59126967 379.501906 655.65716462 381.31378174 657.76177979 C385.20010259 662.22717958 389.36164739 666.37344843 393.58331299 670.51959229 C398.40934526 675.25929125 403.04800691 680.05435405 407.45782471 685.18463135 C410.65160244 688.78998332 414.22176816 692.01052529 417.72784424 695.30865479 C420.32748059 698.30060773 421.25964217 700.16005556 422.08331299 704.01959229 C421.09552002 706.85845947 421.09552002 706.85845947 419.34112549 709.81646729 C418.69482178 710.92731689 418.04851807 712.0381665 417.38262939 713.18267822 C416.65845631 714.37867917 415.93366843 715.57430805 415.20831299 716.76959229 C414.47290588 718.01381208 413.7390402 719.25894414 413.00665283 720.50494385 C410.72907165 724.36165045 408.40965439 728.19216202 406.08331299 732.01959229 C405.35796763 733.21745752 404.63270515 734.41537295 403.90753174 735.61334229 C399.9370382 742.16098014 395.90885521 748.67124703 391.85186768 755.16558838 C390.20851054 757.81755482 388.59637495 760.48524607 386.99737549 763.16412354 C386.5402417 763.92177002 386.08310791 764.6794165 385.61212158 765.46002197 C384.79046302 766.82349205 383.97750454 768.19226401 383.17559814 769.56744385 C380.60204978 773.79483259 380.60204978 773.79483259 378.31402588 774.78619385 C375.31757253 775.09971135 373.2381807 774.37736746 370.37628174 773.43756104 C369.22047607 773.06163818 368.06467041 772.68571533 366.87384033 772.29840088 C365.60989506 771.87342636 364.34639679 771.44712041 363.08331299 771.01959229 C362.12258881 770.69767914 362.12258881 770.69767914 361.14245605 770.3692627 C356.96310037 768.9674632 352.79291775 767.54006411 348.62609863 766.10147095 C346.3464243 765.31505473 344.06535984 764.53278379 341.78399658 763.75128174 C334.57218222 761.27746499 327.37208359 758.77665861 320.19659424 756.19927979 C319.00832031 755.77606445 317.82004639 755.35284912 316.59576416 754.91680908 C314.39035344 754.12921917 312.18845611 753.33169766 309.99078369 752.52276611 C309.01327148 752.17496094 308.03575928 751.82715576 307.02862549 751.46881104 C306.18831787 751.16290039 305.34801025 750.85698975 304.48223877 750.54180908 C301.65403749 749.92614426 299.83978266 750.18147455 297.08331299 751.01959229 C294.94921324 752.8498694 294.94921324 752.8498694 293.02081299 755.26959229 C292.25510986 756.15904541 291.48940674 757.04849854 290.70050049 757.96490479 C290.28638916 758.45120361 289.87227783 758.93750244 289.44561768 759.4385376 C286.90150778 762.39116407 284.2746663 765.26753975 281.64581299 768.14459229 C281.1255957 768.72499268 280.60537842 769.30539307 280.06939697 769.90338135 C278.78185572 771.31414142 277.43703374 772.6722072 276.08331299 774.01959229 C275.42331299 774.01959229 274.76331299 774.01959229 274.08331299 774.01959229 C273.42331299 775.33959229 272.76331299 776.65959229 272.08331299 778.01959229 C271.42331299 778.01959229 270.76331299 778.01959229 270.08331299 778.01959229 C269.75331299 779.00959229 269.42331299 779.99959229 269.08331299 781.01959229 C267.58721924 782.52740479 267.58721924 782.52740479 265.64581299 784.14459229 C261.38057935 787.74651653 257.27826752 791.50136045 253.18487549 795.29693604 C251.08331299 797.01959229 251.08331299 797.01959229 249.08331299 797.01959229 C249.08331299 797.67959229 249.08331299 798.33959229 249.08331299 799.01959229 C247.12183425 800.40897306 245.12164723 801.74563338 243.08331299 803.01959229 C243.67720502 809.35673715 245.12920423 815.06254885 247.03253174 821.12506104 C247.4751812 822.56490105 247.4751812 822.56490105 247.92677307 824.03382874 C248.86854432 827.09355167 249.81918737 830.15042144 250.77081299 833.20709229 C252.92334139 840.1590327 255.06504079 847.11416874 257.18481445 854.07617188 C257.78775287 856.05135734 258.39461698 858.02534841 259.00524902 859.99816895 C259.88536624 862.85147031 260.74633188 865.7099108 261.60284424 868.57037354 C261.8691716 869.42133102 262.13549896 870.27228851 262.40989685 871.14903259 C263.8647654 876.08980352 264.54346964 879.91910573 263.08331299 885.01959229 C261.50689697 886.7432251 261.50689697 886.7432251 259.39190674 887.97271729 C258.57576904 888.45933838 257.75963135 888.94595947 256.91876221 889.44732666 C255.98306396 889.96617432 255.04736572 890.48502197 254.08331299 891.01959229 C253.03804443 891.61578369 251.99277588 892.2119751 250.91583252 892.82623291 C247.34239705 894.83906259 243.74781155 896.80860355 240.14581299 898.76959229 C238.8465868 899.48075112 237.54759796 900.19234372 236.24884033 900.90435791 C234.31326325 901.96534629 232.37751114 903.02600079 230.44085693 904.08502197 C226.07737663 906.47116227 221.72645341 908.87863306 217.38482666 911.30426025 C214.61660349 912.84999384 211.84174515 914.38359014 209.06671143 915.91705322 C206.99582046 917.06822796 204.93439293 918.23542314 202.87237549 919.40240479 C201.52637213 920.15043221 200.18003327 920.89785635 198.83331299 921.64459229 C198.23663818 921.98812744 197.63996338 922.3316626 197.02520752 922.68560791 C193.23107646 924.76440548 190.39524628 925.61830392 186.08331299 925.01959229 C184.28253174 923.87506104 184.28253174 923.87506104 182.77081299 922.20709229 C182.18428955 921.56771729 181.59776611 920.92834229 180.99346924 920.26959229 C178.07819234 916.83564649 175.22804007 913.35278712 172.40362549 909.84381104 C170.20002893 907.16165562 167.92287474 904.58332807 165.58331299 902.01959229 C162.48776103 898.62360547 159.53180092 895.15787698 156.64581299 891.58209229 C152.70839133 886.71375657 148.55666656 882.08613824 144.32550049 877.47271729 C137.08331299 869.54920901 137.08331299 869.54920901 137.08331299 867.01959229 C136.42331299 867.01959229 135.76331299 867.01959229 135.08331299 867.01959229 C134.42331299 866.35959229 133.76331299 865.69959229 133.08331299 865.01959229 C127.61648193 865.85351567 122.59721396 867.49901103 117.37628174 869.29693604 C108.70747533 872.22821599 99.92030295 874.6533763 91.08331299 877.01959229 C90.28081116 877.23581238 89.47830933 877.45203247 88.65148926 877.67480469 C53.90959763 887.01959229 53.90959763 887.01959229 46.08331299 887.01959229 C45.97156738 888.09523438 45.85982178 889.17087646 45.74468994 890.27911377 C45.03978091 895.89063853 43.76036814 901.35838616 42.50128174 906.86724854 C42.24583084 907.99674423 41.99037994 909.12623993 41.72718811 910.28996277 C41.18687092 912.67479017 40.644652 915.0591874 40.10064697 917.44317627 C39.27927228 921.04499733 38.4650011 924.64836878 37.65167236 928.25201416 C36.15812791 934.84816413 34.6306334 941.4358686 33.08331299 948.01959229 C32.8867511 948.86737244 32.69018921 949.71515259 32.4876709 950.58862305 C31.9899341 952.71446147 31.47332294 954.83437676 30.94659424 956.95318604 C30.54307739 958.60725464 30.54307739 958.60725464 30.13140869 960.29473877 C28.69401421 964.03169655 26.65947908 966.23150924 23.08331299 968.01959229 C17.71996553 968.4165203 12.33414404 968.50353314 6.95831299 968.64459229 C6.1500708 968.6663855 5.34182861 968.68817871 4.50909424 968.71063232 C-8.08495153 969.03376252 -20.66752435 969.07572437 -33.26330566 968.82250977 C-35.02644413 968.78734677 -36.78967999 968.75675802 -38.55297852 968.73083496 C-41.02901633 968.69157376 -43.50372957 968.63229187 -45.97918701 968.56646729 C-46.71096161 968.55688995 -47.44273621 968.54731262 -48.19668579 968.53744507 C-52.5808105 968.38984735 -55.5265211 967.86739208 -58.91668701 965.01959229 C-61.1993047 960.98364545 -62.51860777 957.21762398 -63.49481201 952.69805908 C-63.9003833 950.85035164 -63.9003833 950.85035164 -64.31414795 948.96531677 C-64.59834715 947.63315236 -64.88252634 946.30098367 -65.16668701 944.96881104 C-65.46825518 943.58628791 -65.77067884 942.20395115 -66.07391357 940.8217926 C-66.86856826 937.19189854 -67.65448705 933.56017712 -68.43768311 929.92779541 C-69.68918358 924.12573204 -70.94966369 918.32565728 -72.21832275 912.52732277 C-72.65639835 910.5160479 -73.0880899 908.50347942 -73.51922607 906.4907074 C-74.28165512 902.99055663 -75.08849846 899.50467662 -75.91668701 896.01959229 C-76.11205048 895.09284195 -76.30741394 894.16609161 -76.50869751 893.21125793 C-77.09735022 890.88997941 -77.64512536 889.04750228 -78.91668701 887.01959229 C-81.88131964 885.58416239 -83.65628115 885.01769257 -86.79949951 884.52349854 C-87.594272 884.36353897 -88.38904449 884.20357941 -89.207901 884.03877258 C-90.92067866 883.69725706 -92.63702358 883.37325716 -94.35610962 883.06506348 C-98.90744901 882.24655576 -103.4315848 881.29685997 -107.95965576 880.35943604 C-108.8785408 880.17244141 -109.79742584 879.98544678 -110.74415588 879.79278564 C-119.77623043 877.92076447 -128.55689142 875.39946444 -137.35418701 872.64459229 C-138.37455048 872.32773972 -138.37455048 872.32773972 -139.41552734 872.00448608 C-146.00664687 869.95398472 -152.5740421 867.85156027 -159.0692749 865.51324463 C-161.24205094 864.84748875 -161.24205094 864.84748875 -164.91668701 865.01959229 C-167.04961232 867.07512227 -167.04961232 867.07512227 -169.04168701 869.83209229 C-172.20519859 873.88242432 -175.41994409 877.74507072 -178.91668701 881.51959229 C-182.19087124 885.07629473 -185.32311134 888.69121039 -188.35418701 892.45709229 C-192.00768222 896.98691085 -195.85109859 901.26886291 -199.81732178 905.52130127 C-203.71342197 909.72569144 -207.31267691 914.13005847 -210.84637451 918.64459229 C-216.25948534 924.85434961 -216.25948534 924.85434961 -220.71282959 925.29840088 C-224.38033168 924.97924464 -226.56603126 923.99167819 -229.79559326 922.24615479 C-231.424646 921.37990479 -231.424646 921.37990479 -233.08660889 920.49615479 C-234.20615967 919.88513916 -235.32571045 919.27412354 -236.47918701 918.64459229 C-238.70863092 917.44736939 -240.93906387 916.25198601 -243.17059326 915.05865479 C-244.15358398 914.52449951 -245.13657471 913.99034424 -246.14935303 913.44000244 C-248.87707401 911.98422554 -248.87707401 911.98422554 -251.68743896 910.91778564 C-254.12387255 909.93611451 -255.08311711 908.85767837 -256.91668701 907.01959229 C-259.01265741 905.82148248 -261.14382367 904.68447248 -263.29168701 903.58209229 C-270.00494341 900.07506613 -276.63507864 896.43328865 -283.22918701 892.70709229 C-284.15457275 892.19154785 -285.0799585 891.67600342 -286.03338623 891.14483643 C-286.8985083 890.65362305 -287.76363037 890.16240967 -288.65496826 889.65631104 C-289.81572876 889.0021521 -289.81572876 889.0021521 -290.99993896 888.33477783 C-292.91668701 887.01959229 -292.91668701 887.01959229 -294.91668701 884.01959229 C-294.58326822 877.35820151 -292.66523085 871.24442878 -290.71356201 864.89849854 C-290.39389465 863.84033432 -290.07422729 862.7821701 -289.74487305 861.69194031 C-288.72487568 858.32011697 -287.69604904 854.95106716 -286.66668701 851.58209229 C-285.99029605 849.35376164 -285.31450937 847.12524748 -284.63934326 844.89654541 C-284.30922241 843.80780121 -283.97910156 842.71905701 -283.63897705 841.59732056 C-282.98359024 839.43374642 -282.32920187 837.26986956 -281.67584229 835.10568237 C-280.23980509 830.35362863 -278.79224812 825.6074948 -277.28192139 820.878479 C-277.04056458 820.1059227 -276.79920776 819.33336639 -276.55053711 818.53739929 C-276.11602761 817.14719681 -275.67090778 815.76023635 -275.21203613 814.37788391 C-273.84322855 809.93751564 -273.82165758 806.52900101 -274.91668701 802.01959229 C-276.84666309 799.94898229 -278.50334134 798.43842206 -280.72918701 796.76959229 C-281.93652347 795.80415096 -283.1422212 794.83665716 -284.34637451 793.86724854 C-284.95320068 793.38658936 -285.56002686 792.90593018 -286.1852417 792.41070557 C-295.14162516 785.2147844 -303.1644743 776.87112765 -311.29168701 768.76959229 C-311.77217499 768.29178314 -312.25266296 767.813974 -312.74771118 767.32168579 C-323.45660684 756.65808829 -323.45660684 756.65808829 -327.91668701 751.01959229 C-327.91668701 750.35959229 -327.91668701 749.69959229 -327.91668701 749.01959229 C-340.24505838 752.66494819 -352.36387397 756.90360695 -364.51019287 761.10699463 C-367.21371673 762.0416817 -369.91863398 762.97224515 -372.62371826 763.90240479 C-373.43847122 764.18576691 -374.25322418 764.46912903 -375.09266663 764.76107788 C-378.85207807 766.05189111 -382.55845481 767.20303276 -386.43499756 768.0894165 C-387.58395508 768.39637451 -388.7329126 768.70333252 -389.91668701 769.01959229 C-390.24668701 769.67959229 -390.57668701 770.33959229 -390.91668701 771.01959229 C-393.06749108 771.69730735 -395.22912391 772.06712387 -397.44403076 772.48834229 C-399.89049928 772.95376943 -399.89049928 772.95376943 -402.04559326 773.80084229 C-404.04168701 774.51959229 -404.04168701 774.51959229 -407.91668701 775.01959229 C-414.75927313 771.28727258 -417.71622837 764.51380014 -421.28387451 757.87115479 C-424.25500711 752.34084369 -427.42774874 746.93381644 -430.60418701 741.51959229 C-431.79952241 739.47403275 -432.99483453 737.42845961 -434.19012451 735.38287354 C-436.75354065 731.00274 -439.32249041 726.62588814 -441.89324951 722.25006104 C-442.85678345 720.60650635 -442.85678345 720.60650635 -443.83978271 718.92974854 C-445.0780814 716.81764844 -446.31872092 714.7069186 -447.56195068 712.59771729 C-448.11858398 711.64767822 -448.67521729 710.69763916 -449.24871826 709.71881104 C-449.98698853 708.46330444 -449.98698853 708.46330444 -450.74017334 707.18243408 C-451.91668701 705.01959229 -451.91668701 705.01959229 -452.91668701 702.01959229 C-451.05389236 698.16749275 -448.53381701 695.41076081 -445.49481201 692.43756104 C-444.63371826 691.58742432 -443.77262451 690.7372876 -442.88543701 689.86138916 C-441.98824951 688.98547119 -441.09106201 688.10955322 -440.16668701 687.20709229 C-434.63380595 681.78341282 -429.20283132 676.40547269 -424.28289795 670.41143799 C-423.83204834 669.95212891 -423.38119873 669.49281982 -422.91668701 669.01959229 C-422.25668701 669.01959229 -421.59668701 669.01959229 -420.91668701 669.01959229 C-420.58668701 668.02959229 -420.25668701 667.03959229 -419.91668701 666.01959229 C-419.25668701 666.01959229 -418.59668701 666.01959229 -417.91668701 666.01959229 C-417.66741455 665.44289795 -417.41814209 664.86620361 -417.16131592 664.27203369 C-415.73941946 661.698786 -414.11469179 660.02276063 -412.00262451 657.98052979 C-411.24207764 657.23545166 -410.48153076 656.49037354 -409.69793701 655.72271729 C-408.50684326 654.57029541 -408.50684326 654.57029541 -407.29168701 653.39459229 C-405.71166517 651.86537501 -404.13589727 650.33174595 -402.56512451 648.79302979 C-401.86564697 648.11675537 -401.16616943 647.44048096 -400.44549561 646.74371338 C-398.69553507 645.15423897 -398.69553507 645.15423897 -398.91668701 643.01959229 C-398.25668701 642.68959229 -397.59668701 642.35959229 -396.91668701 642.01959229 C-397.30038452 641.14113647 -397.30038452 641.14113647 -397.6918335 640.24493408 C-405.73966084 621.69495202 -413.49276811 602.80453014 -417.71746826 582.96881104 C-417.86278488 582.30227005 -418.0081015 581.63572906 -418.15782166 580.94898987 C-418.85978219 577.71200317 -419.51241443 574.48377366 -420.09515381 571.22198486 C-421.11128248 565.13773753 -421.11128248 565.13773753 -424.86468506 560.62774658 C-427.22475322 559.81715947 -429.4505068 559.3826392 -431.91668701 559.01959229 C-433.2616215 558.64823688 -434.60200091 558.25981181 -435.93621826 557.85162354 C-437.81373779 557.34695557 -437.81373779 557.34695557 -439.72918701 556.83209229 C-440.99375732 556.4879126 -442.25832764 556.14373291 -443.56121826 555.78912354 C-446.99272139 554.87057004 -446.99272139 554.87057004 -450.91668701 555.01959229 C-450.91668701 554.35959229 -450.91668701 553.69959229 -450.91668701 553.01959229 C-451.49177002 552.9325 -452.06685303 552.84540771 -452.65936279 552.75567627 C-461.34805203 551.31469362 -469.78866062 549.06299821 -478.27996826 546.76104736 C-480.80500094 546.07849333 -483.33330143 545.40912481 -485.86199951 544.74029541 C-487.48200502 544.30424011 -489.10180447 543.86741843 -490.72137451 543.42974854 C-491.47039032 543.23276871 -492.21940613 543.03578888 -492.99111938 542.83283997 C-500.7414665 540.70499082 -500.7414665 540.70499082 -503.91668701 538.01959229 C-505.60587802 533.22066224 -506.17199736 528.97829712 -506.19134521 523.91021729 C-506.19645615 523.23768921 -506.20156708 522.56516113 -506.20683289 521.87225342 C-506.22061963 519.67127334 -506.2197808 517.47061014 -506.21746826 515.26959229 C-506.22136053 513.72694789 -506.22569628 512.18430456 -506.23045349 510.6416626 C-506.2378917 507.4173433 -506.23764142 504.19313356 -506.23236084 500.96881104 C-506.22656205 496.84984185 -506.24351845 492.73132173 -506.26670551 488.61242676 C-506.28147908 485.4295594 -506.28230977 482.24679939 -506.27919579 479.06390381 C-506.27970694 477.54574696 -506.28490576 476.02758377 -506.29500771 474.50946045 C-506.30742921 472.38233698 -506.300548 470.25607827 -506.28900146 468.12896729 C-506.28963089 466.92208252 -506.29026031 465.71519775 -506.29090881 464.47174072 C-505.83936485 460.30630524 -504.89116397 457.71314193 -502.91668701 454.01959229 C-500.08382766 452.58226183 -497.9389001 451.78442455 -494.91668701 451.01959229 C-493.99645752 450.77193115 -493.07622803 450.52427002 -492.12811279 450.269104 C-488.02674266 449.19233521 -483.91000781 448.18338491 -479.78973389 447.18170166 C-478.29216553 446.80561768 -478.29216553 446.80561768 -476.76434326 446.42193604 C-475.40321411 446.08923706 -475.40321411 446.08923706 -474.0145874 445.74981689 C-471.73029088 445.22822195 -471.73029088 445.22822195 -470.91668701 443.01959229 C-469.14265442 442.67817688 -469.14265442 442.67817688 -466.8739624 442.52374268 C-462.27991312 442.10689572 -458.03971542 441.17375725 -453.60028076 439.95318604 C-452.85834976 439.75483658 -452.11641876 439.55648712 -451.352005 439.35212708 C-449.01769864 438.72657789 -446.68595781 438.09201983 -444.35418701 437.45709229 C-442.75734375 437.02745345 -441.16033971 436.59841175 -439.56317139 436.16998291 C-435.67912027 435.12673424 -431.79734012 434.07540732 -427.91668701 433.01959229 C-427.91668701 432.35959229 -427.91668701 431.69959229 -427.91668701 431.01959229 C-427.25668701 430.68959229 -426.59668701 430.35959229 -425.91668701 430.01959229 C-425.27329165 427.34428164 -425.27329165 427.34428164 -424.87371826 424.04693604 C-424.69075195 422.77044189 -424.50778564 421.49394775 -424.3192749 420.17877197 C-424.22373322 419.49182251 -424.12819153 418.80487305 -424.02975464 418.09710693 C-422.2921878 405.72578627 -420.1618425 393.47103366 -417.47918701 381.26959229 C-417.33276764 380.60203918 -417.18634827 379.93448608 -417.03549194 379.2467041 C-414.99076693 370.01288849 -412.64294966 360.90288737 -409.60638428 351.94049072 C-408.28882151 347.95166203 -407.3663929 345.02749549 -408.91668701 341.01959229 C-410.22964747 339.18817228 -410.22964747 339.18817228 -411.97918701 337.64459229 C-412.61598389 337.04388916 -413.25278076 336.44318604 -413.90887451 335.82427979 C-416.46133569 333.53004425 -419.03354997 331.2621653 -421.63153076 329.01959229 C-424.34705897 326.64292486 -427.01000899 324.21149868 -429.66668701 321.76959229 C-430.17312744 321.30432129 -430.67956787 320.83905029 -431.20135498 320.35968018 C-433.30721205 318.42341568 -435.41140558 316.48535278 -437.51483154 314.54644775 C-439.08543278 313.09906868 -440.65711446 311.65287303 -442.22918701 310.20709229 C-442.7280542 309.7472998 -443.22692139 309.28750732 -443.74090576 308.81378174 C-446.49283644 306.28765286 -449.29105072 303.84091955 -452.16668701 301.45709229 C-453.07418701 300.65271729 -453.98168701 299.84834229 -454.91668701 299.01959229 C-454.91668701 298.35959229 -454.91668701 297.69959229 -454.91668701 297.01959229 C-455.79453857 296.61547119 -455.79453857 296.61547119 -456.69012451 296.20318604 C-458.9178627 295.01896732 -460.63812801 293.72988675 -462.54168701 292.08209229 C-463.42727295 291.32605713 -463.42727295 291.32605713 -464.33074951 290.55474854 C-465.91668701 289.01959229 -465.91668701 289.01959229 -467.91668701 286.01959229 C-467.90840325 278.57248685 -464.73410272 273.47478724 -460.97918701 267.20709229 C-459.7788731 265.14859242 -458.58098439 263.08867664 -457.38543701 261.02740479 C-456.79246826 260.00936768 -456.19949951 258.99133057 -455.58856201 257.94244385 C-453.26582645 253.88172682 -451.11525131 249.74305192 -448.97918701 245.58209229 C-445.019915 237.96664647 -440.86622219 230.46968972 -436.60418701 223.01959229 C-436.01709961 221.97359863 -435.43001221 220.92760498 -434.82513428 219.84991455 C-434.26108887 218.8746582 -433.69704346 217.89940186 -433.11590576 216.89459229 C-432.37086792 215.5913501 -432.37086792 215.5913501 -431.61077881 214.26177979 C-429.6262732 211.63521984 -427.90359786 210.38560503 -424.91668701 209.01959229 C-421.91400266 209.5031825 -419.40722844 210.1439669 -416.54168701 211.08209229 C-415.67406738 211.34651123 -414.80644775 211.61093018 -413.91253662 211.88336182 C-410.5734561 212.90687529 -407.245706 213.96379937 -403.91668701 215.01959229 C-397.99302882 216.88052998 -392.06437318 218.72525296 -386.13439941 220.56594849 C-383.50322819 221.38708947 -380.8761096 222.22031252 -378.24920654 223.05499268 C-376.59810504 223.57216709 -374.94690469 224.08902605 -373.29559326 224.60552979 C-372.54003647 224.84902664 -371.78447968 225.0925235 -371.00602722 225.34339905 C-366.84477768 226.63304651 -363.32902169 227.28843019 -358.91668701 227.01959229 C-358.58668701 227.67959229 -358.25668701 228.33959229 -357.91668701 229.01959229 C-355.34231121 229.93239367 -355.34231121 229.93239367 -352.35418701 230.64459229 C-351.34227295 230.90498291 -350.33035889 231.16537354 -349.28778076 231.43365479 C-348.50531982 231.62701416 -347.72285889 231.82037354 -346.91668701 232.01959229 C-346.18965576 231.02701416 -345.46262451 230.03443604 -344.71356201 229.01177979 C-338.60398052 220.73411694 -332.28718634 212.74906032 -325.51043701 205.00787354 C-323.84974213 203.09457296 -322.23922794 201.13579445 -320.69793701 199.12506104 C-320.11012451 198.43025635 -319.52231201 197.73545166 -318.91668701 197.01959229 C-318.25668701 197.01959229 -317.59668701 197.01959229 -316.91668701 197.01959229 C-316.57468262 196.18971802 -316.57468262 196.18971802 -316.22576904 195.34307861 C-314.53783188 192.34716328 -312.40883166 190.27016706 -309.97137451 187.84381104 C-309.48266876 187.35556351 -308.99396301 186.86731598 -308.490448 186.36427307 C-307.45553035 185.3323703 -306.4181895 184.30289285 -305.37860107 183.2756958 C-303.81268032 181.72784336 -302.25472343 180.17232878 -300.69793701 178.61529541 C-295.75421804 173.68965093 -290.76214482 168.86133691 -285.44451904 164.33526611 C-284.22164426 163.28220248 -283.05781929 162.16072456 -281.91668701 161.01959229 C-283.08685803 153.68292791 -285.51382204 146.66715179 -287.77203369 139.60372925 C-288.89074121 136.09545528 -289.98891214 132.58075232 -291.08856201 129.06646729 C-291.31747131 128.33515091 -291.54638062 127.60383453 -291.78222656 126.85035706 C-292.49440728 124.57365169 -293.20566065 122.29665841 -293.91668701 120.01959229 C-294.28129028 118.8535144 -294.28129028 118.8535144 -294.65325928 117.66387939 C-296.11622634 112.97747454 -297.56029804 108.28588315 -298.980896 103.5864563 C-299.43618104 102.08982221 -299.89723947 100.59493166 -300.36419678 99.10189819 C-301.01670474 97.01234283 -301.64866841 94.91758406 -302.27606201 92.82037354 C-302.6418335 91.62581543 -303.00760498 90.43125732 -303.38446045 89.20050049 C-303.99557182 85.54812891 -303.88925288 84.13709471 -301.91668701 81.01959229 C-299.34564209 79.04937744 -299.34564209 79.04937744 -296.12371826 77.18365479 C-295.54580032 76.84403717 -294.96788239 76.50441956 -294.37245178 76.1545105 C-292.56170924 75.09526783 -290.74030585 74.05647604 -288.91668701 73.01959229 C-287.82662354 72.38762939 -286.73656006 71.7556665 -285.61346436 71.10455322 C-282.28626773 69.18457417 -278.94696031 67.28730737 -275.60418701 65.39459229 C-273.1618302 64.00693673 -270.72068992 62.61715284 -268.27996826 61.22662354 C-267.66931519 60.87883347 -267.05866211 60.5310434 -266.42950439 60.17271423 C-258.98850565 55.92882362 -251.59515399 51.60393414 -244.20452881 47.27301025 C-243.27165039 46.72660889 -242.33877197 46.18020752 -241.37762451 45.61724854 C-240.56084229 45.13779785 -239.74406006 44.65834717 -238.90252686 44.16436768 C-234.97356768 41.89944395 -232.5272352 41.49512455 -227.91668701 42.01959229 C-225.40222794 43.64663783 -223.48963779 45.68990724 -221.47918701 47.89459229 C-220.66804443 48.72797119 -220.66804443 48.72797119 -219.84051514 49.57818604 C-215.91668701 53.69547724 -215.91668701 53.69547724 -215.91668701 56.01959229 C-215.38043701 56.22584229 -214.84418701 56.43209229 -214.29168701 56.64459229 C-210.99690693 58.55209655 -208.32305073 61.06778613 -205.91668701 64.01959229 C-205.91668701 64.67959229 -205.91668701 65.33959229 -205.91668701 66.01959229 C-205.08137451 66.32896729 -205.08137451 66.32896729 -204.22918701 66.64459229 C-201.9697189 67.98805981 -200.91682141 69.0711693 -199.29168701 71.08209229 C-197.24549305 74.02783941 -197.24549305 74.02783941 -194.91668701 75.01959229 C-194.91668701 75.67959229 -194.91668701 76.33959229 -194.91668701 77.01959229 C-193.92668701 77.34959229 -192.93668701 77.67959229 -191.91668701 78.01959229 C-190.47918701 79.48052979 -190.47918701 79.48052979 -188.91668701 81.39459229 C-185.79977222 85.02768405 -182.6418519 88.60320608 -179.35418701 92.08209229 C-178.46602295 93.04244385 -177.57785889 94.00279541 -176.66278076 94.99224854 C-174.10644897 97.3484759 -174.10644897 97.3484759 -171.11712646 96.76934814 C-167.97285624 96.03275085 -165.00791629 95.12623539 -161.96356201 94.05084229 C-160.22477783 93.44792358 -160.22477783 93.44792358 -158.4508667 92.83282471 C-157.83610474 92.61887054 -157.22134277 92.40491638 -156.58795166 92.18447876 C-131.5764244 83.52881219 -106.08625295 76.89602056 -79.99090576 72.44927979 C-77.8675282 72.10188033 -77.8675282 72.10188033 -75.91668701 71.01959229 C-75.01791764 68.37959726 -75.01791764 68.37959726 -74.28436279 65.1104126 C-73.97709259 63.84529846 -73.66982239 62.58018433 -73.35324097 61.2767334 C-73.191908 60.5960807 -73.03057503 59.91542801 -72.86435318 59.21414948 C-72.35899629 57.08506462 -71.84268111 54.95891952 -71.32315063 52.83325195 C-69.84776164 46.78783972 -68.39266792 40.73759749 -66.94451904 34.68560791 C-66.05842424 30.98590393 -65.15959208 27.28947666 -64.25323105 23.59468842 C-63.91095337 22.1877551 -63.57368655 20.77959265 -63.24161148 19.37021637 C-62.77558616 17.39274914 -62.29202921 15.41943869 -61.80780029 13.4463501 C-61.53847687 12.32351624 -61.26915344 11.20068237 -60.9916687 10.04382324 C-59.59409124 6.1120381 -57.73135851 2.92692804 -53.91668701 1.01959229 C-36.0905025 -0.82921814 -17.89678033 -0.17743073 0 0 Z M-220.91668701 215.01959229 C-221.85125732 215.75951416 -222.78582764 216.49943604 -223.74871826 217.26177979 C-240.88933444 231.04293328 -257.45362746 246.59680934 -270.91668701 264.01959229 C-271.85108635 265.16795553 -272.7888223 266.3136088 -273.72918701 267.45709229 C-280.98108193 276.30961489 -287.60519928 285.47622378 -293.91668701 295.01959229 C-294.54059326 295.96189697 -295.16449951 296.90420166 -295.80731201 297.87506104 C-307.17659495 314.76884976 -307.17659495 314.76884976 -315.91668701 333.01959229 C-315.42168701 334.00959229 -315.42168701 334.00959229 -314.91668701 335.01959229 C-287.19668701 335.01959229 -259.47668701 335.01959229 -230.91668701 335.01959229 C-230.93731201 347.86896729 -230.95793701 360.71834229 -230.97918701 373.95709229 C-230.98133856 382.25270115 -230.98210641 390.54822154 -230.97137451 398.84381104 C-230.97001369 399.90283819 -230.96865288 400.96186535 -230.96725082 402.05298424 C-230.93231476 426.80038665 -230.83711585 451.54728238 -230.65322876 476.29403687 C-230.61917801 480.92836254 -230.59190226 485.5626509 -230.57052612 490.197052 C-230.54470569 495.69816872 -230.50449014 501.19900178 -230.45356369 506.69994164 C-230.43709557 508.71953132 -230.42540628 510.73916701 -230.41905594 512.75881386 C-230.35450767 531.27637222 -229.41224159 550.19646244 -216.10418701 564.58209229 C-207.67315049 572.21250712 -197.05394103 575.28844431 -185.91668701 576.01959229 C-184.48002686 576.11820557 -184.48002686 576.11820557 -183.01434326 576.21881104 C-169.47337745 576.7042103 -156.34443209 573.77208781 -146.16668701 564.51959229 C-145.05293701 563.28209229 -145.05293701 563.28209229 -143.91668701 562.01959229 C-143.25668701 561.31834229 -142.59668701 560.61709229 -141.91668701 559.89459229 C-131.03210074 544.24799951 -131.47839649 525.29102218 -131.72918701 507.01959229 C-131.74428307 505.08210286 -131.75796264 503.14460186 -131.77020264 501.20709229 C-131.80304602 496.4776452 -131.85582462 491.74875636 -131.91668701 487.01959229 C-131.91668701 484.73533366 -131.89386274 482.45098089 -131.87872314 480.16679382 C-131.87030899 478.8948819 -131.86189484 477.62296997 -131.85322571 476.31251526 C-131.84378113 474.88992309 -131.83433591 473.46733093 -131.82489014 472.04473877 C-131.8150352 470.55692547 -131.80518318 469.06911216 -131.79533386 467.58129883 C-131.76850488 463.52983415 -131.74163493 459.47836975 -131.71475792 455.42690539 C-131.68670714 451.19747098 -131.65869364 446.96803632 -131.63067627 442.73860168 C-131.57757883 434.72400141 -131.52444761 426.70940136 -131.47130442 418.69480139 C-131.41082006 409.5728237 -131.35037311 400.45084576 -131.28992939 391.32886779 C-131.16555705 372.55910901 -131.04113746 353.78935055 -130.91668701 335.01959229 C-129.36360336 335.0229232 -129.36360336 335.0229232 -127.77914429 335.02632141 C-118.03768112 335.04656338 -108.29622221 335.06156953 -98.55474281 335.07140446 C-93.54615022 335.07663059 -88.53757455 335.08372338 -83.5289917 335.09503174 C-78.69850879 335.10587015 -73.8680422 335.11187116 -69.03754807 335.11446953 C-67.191499 335.11632205 -65.34545087 335.11993937 -63.49940872 335.12532234 C-60.92054541 335.1325454 -58.34175017 335.13358269 -55.76287842 335.13311768 C-54.99395767 335.13671295 -54.22503693 335.14030823 -53.43281555 335.14401245 C-49.5470528 335.21222861 -49.5470528 335.21222861 -45.91668701 334.01959229 C-45.89289023 352.1497661 -45.87548618 370.27993565 -45.86487484 388.41012192 C-45.85980785 396.83610319 -45.85292151 405.26207441 -45.84124756 413.68804932 C-45.7975527 446.07891601 -45.76131363 478.47232974 -46.18441963 510.86109161 C-46.21627337 513.38827555 -46.24377309 515.91551905 -46.26640129 518.44280243 C-46.6229345 556.04225142 -54.43985899 587.11471163 -81.37371826 614.51959229 C-95.32099849 627.90228995 -112.66508205 636.74025001 -131.22918701 641.76959229 C-131.91408203 641.95626465 -132.59897705 642.14293701 -133.30462646 642.33526611 C-148.3821028 646.12548395 -163.4721513 647.57739932 -178.97918701 647.45709229 C-179.81986725 647.4540509 -180.66054749 647.45100952 -181.52670288 647.44787598 C-218.42768113 647.25180508 -254.40633851 639.21269913 -282.13934326 613.58599854 C-283.84311566 611.9497645 -283.84311566 611.9497645 -285.91668701 611.01959229 C-287.40337996 609.24043515 -288.72699045 607.36402621 -290.08465576 605.48443604 C-291.34503126 603.78870695 -292.66475076 602.13601976 -294.02996826 600.52349854 C-319.14375756 569.9445323 -316.14253504 525.33822901 -315.88006592 488.18780518 C-315.87576569 487.33847412 -315.87146545 486.48914307 -315.86703491 485.61407471 C-315.85866245 484.00735675 -315.8461514 482.40065337 -315.82888794 480.79400635 C-315.8143768 477.59275024 -315.89635121 475.08059969 -316.91668701 472.01959229 C-316.82817145 470.43202282 -316.67287448 468.8477865 -316.47918701 467.26959229 C-315.58942246 458.53372211 -315.40075386 449.68259688 -316.47918701 440.95709229 C-317.00447999 435.91754773 -316.74965855 431.08555168 -316.44793701 426.04693604 C-315.59858137 409.7795686 -315.80456031 393.48920313 -315.84802246 377.2053833 C-315.85841816 372.88694762 -315.86285419 368.56850573 -315.86785889 364.25006104 C-315.87845015 355.8398882 -315.89542173 347.42974489 -315.91668701 339.01959229 C-316.57668701 338.68959229 -317.23668701 338.35959229 -317.91668701 338.01959229 C-353.45043531 414.88337407 -354.50467691 504.86922338 -325.99627686 584.12652588 C-312.04688772 621.5078604 -291.38081387 656.16363992 -264.91668701 686.01959229 C-264.08266357 686.9644751 -263.24864014 687.90935791 -262.38934326 688.88287354 C-251.10563231 701.42221548 -239.33691295 713.76025402 -225.91668701 724.01959229 C-224.66712155 725.00807992 -223.4184954 725.99775563 -222.17059326 726.98834229 C-186.52015369 755.04844219 -145.49431012 775.5325721 -101.91668701 788.01959229 C-100.52063232 788.42153809 -100.52063232 788.42153809 -99.09637451 788.831604 C-82.58802469 793.49003991 -65.94280098 796.07582153 -48.91668701 798.01959229 C-47.66468506 798.17754272 -47.66468506 798.17754272 -46.38739014 798.33868408 C-37.30157632 799.35353124 -28.14437099 799.20564683 -19.01434326 799.20489502 C-16.08320136 799.2070616 -13.15244915 799.22521035 -10.22137451 799.24420166 C44.74727909 799.41017488 99.23977292 785.14667706 147.08331299 758.01959229 C148.05736084 757.46755127 148.05736084 757.46755127 149.05108643 756.90435791 C168.33984656 745.85670815 186.24842627 733.02172657 203.11065674 718.56256104 C204.6557855 717.24077546 206.2049645 715.92258345 207.79473877 714.65484619 C209.25787919 713.48390541 210.67493511 712.25585841 212.08331299 711.01959229 C212.08331299 710.35959229 212.08331299 709.69959229 212.08331299 709.01959229 C212.70206299 708.77209229 213.32081299 708.52459229 213.95831299 708.26959229 C216.22077793 707.19815499 216.22077793 707.19815499 217.08331299 705.01959229 C218.08331299 703.01959229 218.08331299 703.01959229 219.79815674 702.25787354 C223.03174917 700.50565336 225.21977003 697.91162402 227.64581299 695.20709229 C228.43363159 694.33866699 228.43363159 694.33866699 229.23736572 693.45269775 C230.86282528 691.65042527 232.47558499 689.8376911 234.08331299 688.01959229 C234.56284424 687.4780249 235.04237549 686.93645752 235.53643799 686.378479 C280.21802849 635.56258306 307.34650245 571.19643172 314.08331299 504.01959229 C314.20708565 502.82327179 314.20708565 502.82327179 314.33335876 501.6027832 C314.9662918 495.1636965 315.26826659 488.78485208 315.32159424 482.31646729 C315.33120682 481.32719238 315.3408194 480.33791748 315.35072327 479.31866455 C315.37530101 476.13560492 315.38796742 472.9527356 315.39581299 469.76959229 C315.39909607 468.68520874 315.40237915 467.6008252 315.40576172 466.48358154 C316.06104562 437.99796456 316.06104562 437.99796456 310.04595947 410.43292236 C309.11667265 408.1032241 308.78367646 406.34172744 308.61065674 403.85943604 C308.11532805 398.62976228 306.93834721 393.66555777 305.64581299 388.58209229 C305.42860596 387.68554932 305.21139893 386.78900635 304.98760986 385.86529541 C304.77298096 385.01000244 304.55835205 384.15470947 304.33721924 383.27349854 C304.14458496 382.50336426 303.95195068 381.73322998 303.753479 380.9397583 C303.16765541 378.81419696 303.16765541 378.81419696 301.08331299 377.01959229 C300.50958252 375.15045166 300.50958252 375.15045166 300.08331299 373.01959229 C299.95166748 372.36281494 299.82002197 371.7060376 299.68438721 371.02935791 C299.54532959 370.33519775 299.40627197 369.6410376 299.26300049 368.92584229 C298.08129338 363.58740946 296.1984802 358.60228699 294.20831299 353.51959229 C293.86928955 352.63400635 293.53026611 351.74842041 293.18096924 350.83599854 C284.92783107 329.4657054 274.19974242 308.8066585 261.08331299 290.01959229 C259.96182861 288.39150635 259.96182861 288.39150635 258.81768799 286.73052979 C241.9258284 262.45561063 221.4607322 239.20606282 198.08331299 221.01959229 C196.37380008 219.58349526 194.66550958 218.14594211 192.95831299 216.70709229 C112.92784562 151.50546682 1.69765191 130.63149879 -220.91668701 215.01959229 Z M300.08331299 373.01959229 C301.08331299 376.01959229 301.08331299 376.01959229 301.08331299 376.01959229 Z M-272.91668701 804.01959229 C-271.91668701 806.01959229 -271.91668701 806.01959229 -271.91668701 806.01959229 Z " fill="#B7B6B7" transform="translate(526.9166870117188,36.98040771484375)"/>
<path d="M0 0 C10.50927164 -0.02314922 21.01853724 -0.04092829 31.52782917 -0.05181217 C36.40747794 -0.05703533 41.2871093 -0.06412275 46.16674805 -0.07543945 C50.87404235 -0.08628839 55.58131988 -0.09228111 60.28862572 -0.09487724 C62.08639986 -0.09672786 63.88417306 -0.10034154 65.68194008 -0.10573006 C68.19593937 -0.11296707 70.70986895 -0.11398981 73.22387695 -0.11352539 C73.97050095 -0.11712067 74.71712494 -0.12071594 75.4863739 -0.12442017 C78.6015585 -0.1181747 81.02058151 0.0068605 84 1 C84.9565261 16.51365764 85.08960624 31.96853428 85.01748657 47.50802612 C84.98387604 55.08473516 84.98195161 62.66150881 84.98046875 70.23828125 C84.98028433 71.06295458 84.98009991 71.88762791 84.9799099 72.73729134 C84.97877109 95.43807328 85.09233556 118.13815765 85.26245117 140.83825684 C85.29725579 145.55333209 85.32496027 150.26836609 85.34643555 154.98352051 C85.37235604 160.60695691 85.41257393 166.23012114 85.46318626 171.85338783 C85.47964868 173.9355166 85.49128938 176.01769026 85.49761391 178.0998745 C85.55929833 196.42551998 86.19395504 215.7034307 99.3125 230.0625 C107.55368201 237.39622601 118.22565044 240.29267629 129 241 C130.43666016 241.09861328 130.43666016 241.09861328 131.90234375 241.19921875 C145.50536136 241.68684237 158.26901191 238.65224557 168.6875 229.6875 C182.23540924 213.94263251 182.31613715 194.40167417 182.125 174.6875 C182.11494396 172.8678435 182.10582278 171.04818159 182.09765625 169.22851562 C182.0758648 164.81887396 182.04148164 160.40949858 182 156 C181.67 156 181.34 156 181 156 C181 154.35 181 152.7 181 151 C181.33 151 181.66 151 182 151 C182.495 76.75 182.495 76.75 183 1 C186.69851313 -0.23283771 190.10931103 -0.13161347 193.9597168 -0.11352539 C195.17469345 -0.11374443 195.17469345 -0.11374443 196.41421509 -0.1139679 C199.09257685 -0.113271 201.77086913 -0.10548903 204.44921875 -0.09765625 C206.30581118 -0.09579128 208.1624041 -0.09436775 210.01899719 -0.09336853 C214.90655881 -0.0895496 219.79409074 -0.07972461 224.68164062 -0.06866455 C229.66861571 -0.05843704 234.65559558 -0.05386803 239.64257812 -0.04882812 C249.42839847 -0.03810181 259.21419676 -0.02103284 269 0 C269.13255364 13.55552735 269.26305378 27.11107292 269.39115143 40.66664314 C269.45073524 46.96559724 269.51094569 53.26454386 269.57275391 59.56347656 C269.94801785 97.88076696 270.28773744 136.19545003 269.73754883 174.51269531 C269.70370438 177.0399675 269.6758726 179.56732622 269.65356445 182.09472656 C269.32284224 219.08870387 263.06687867 250.39153173 237 278 C236.42507813 278.62777344 235.85015625 279.25554687 235.2578125 279.90234375 C213.56270066 302.79120576 178.68139398 313.32166518 147.87420654 314.38615417 C143.89430998 314.46660396 139.91795136 314.46838123 135.9375 314.4375 C135.09681976 314.43445862 134.25613953 314.43141724 133.38998413 314.42828369 C96.80668965 314.23390079 60.05611704 306.45070011 32.875 280.46875 C31.00334845 278.69166901 31.00334845 278.69166901 28 279 C27.85304687 278.12601563 27.85304687 278.12601563 27.703125 277.234375 C26.86017632 274.55567141 25.67759649 273.27816674 23.75 271.25 C20.71522431 267.92234042 18.31001671 264.54821975 16.04296875 260.6640625 C14.98109798 258.83201352 14.98109798 258.83201352 13 257 C-3.00666704 224.46877756 -2.21307407 189.51058382 -1.96337891 154.16821289 C-1.95907867 153.31888184 -1.95477844 152.46955078 -1.9503479 151.59448242 C-1.94197543 149.98776447 -1.92946439 148.38106109 -1.91220093 146.77441406 C-1.89768979 143.57315796 -1.9796642 141.06100741 -3 138 C-2.91148444 136.41243054 -2.75618747 134.82819421 -2.5625 133.25 C-1.67273545 124.51412983 -1.48406685 115.6630046 -2.5625 106.9375 C-2.99774679 102.76787551 -2.93260507 98.79155191 -2.67958069 94.62277222 C-1.99267635 83.27371361 -1.92850328 71.95011682 -1.97265625 60.5859375 C-1.97537851 59.77067408 -1.97810078 58.95541065 -1.98090553 58.11544228 C-2.00725133 50.45579834 -2.04657235 42.79624753 -2.09594727 35.13671875 C-2.12269806 30.90332259 -2.13974712 26.66997675 -2.15081596 22.43651199 C-2.15700443 20.83771476 -2.16698289 19.23892736 -2.18089485 17.64017868 C-2.200082 15.42330079 -2.20700002 13.20669572 -2.21118164 10.98974609 C-2.21863907 9.7326181 -2.2260965 8.47549011 -2.23377991 7.18026733 C-2.01299088 4.17672383 -1.58750006 2.51467708 0 0 Z " fill="#A9206D" transform="translate(212,371)"/>
<path d="M0 0 C0.66 0 1.32 0 2 0 C2 0.66 2 1.32 2 2 C2.99 2.33 3.98 2.66 5 3 C3.46538768 11.09576918 0.86450966 18.79353766 -1.76696777 26.58270264 C-2.57342159 28.96982821 -3.37361902 31.3589831 -4.17285156 33.74853516 C-6.6586141 41.16298894 -9.18011188 48.56291504 -11.79296875 55.93359375 C-12.21054443 57.11638916 -12.62812012 58.29918457 -13.05834961 59.51782227 C-13.83287493 61.69985417 -14.61578843 63.87893315 -15.40844727 66.05444336 C-17.10854682 70.8353029 -18.52474229 74.84003419 -18 80 C-18.66 80 -19.32 80 -20 80 C-20.30591064 80.91773193 -20.61182129 81.83546387 -20.92700195 82.78100586 C-25.12972005 95.38916016 -29.33243815 107.99731445 -33.53515625 120.60546875 C-33.77912643 121.33738434 -34.02309662 122.06929993 -34.27445984 122.82339478 C-34.75541482 124.2662496 -35.23638188 125.70910039 -35.71736145 127.15194702 C-36.87265112 130.61764166 -38.02774082 134.08340267 -39.18237305 137.54931641 C-41.18599957 143.56306812 -43.19176391 149.57607304 -45.20703125 155.5859375 C-45.53533936 156.5663501 -45.86364746 157.5467627 -46.2019043 158.55688477 C-46.79454485 160.32602889 -47.38835636 162.09478145 -47.98364258 163.86303711 C-48.23911865 164.62624268 -48.49459473 165.38944824 -48.7578125 166.17578125 C-48.9758252 166.82458252 -49.19383789 167.47338379 -49.41845703 168.1418457 C-49.81209972 169.39961838 -50.16331716 170.67132171 -50.47485352 171.9519043 C-51.05963039 174.23256131 -51.8264036 176.38589857 -52.64453125 178.59375 C-52.98524658 179.52243896 -53.32596191 180.45112793 -53.67700195 181.40795898 C-54.05171631 182.42833252 -54.42643066 183.44870605 -54.8125 184.5 C-58.66580172 195.08775986 -62.28026202 205.73949554 -65.8125 216.4375 C-71.62867068 234.04696179 -77.75979461 251.53678857 -84 269 C-83.34 269.33 -82.68 269.66 -82 270 C-82.99 270 -83.98 270 -85 270 C-85.24435791 270.94528564 -85.24435791 270.94528564 -85.49365234 271.90966797 C-87.57155957 279.75309586 -90.04469768 287.43403437 -92.625 295.125 C-93.03234375 296.35476563 -93.4396875 297.58453125 -93.859375 298.8515625 C-94.24867188 300.016875 -94.63796875 301.1821875 -95.0390625 302.3828125 C-95.39178223 303.43871582 -95.74450195 304.49461914 -96.10791016 305.58251953 C-97 308 -97 308 -98 309 C-101.09437593 309.24759657 -104.1654005 309.4255814 -107.265625 309.5546875 C-108.72950653 309.61775589 -108.72950653 309.61775589 -110.22296143 309.68209839 C-121.81679985 310.13417618 -133.4106087 310.1501112 -145.01171875 310.13037109 C-148.73181265 310.12502613 -152.4517848 310.13034537 -156.171875 310.13671875 C-172.14188482 310.14067055 -188.04481068 309.70292093 -204 309 C-208.29 296.46 -212.58 283.92 -217 271 C-217.66 271 -218.32 271 -219 271 C-219.33 269.68 -219.66 268.36 -220 267 C-219.34 267 -218.68 267 -218 267 C-218.34444881 264.52733235 -218.34444881 264.52733235 -219 262 C-219.66 261.67 -220.32 261.34 -221 261 C-221.37430025 259.34205301 -221.69653405 257.67236279 -222 256 C-222.78540376 253.47990596 -223.59566247 250.98000908 -224.44140625 248.48046875 C-224.68501389 247.75261169 -224.92862152 247.02475464 -225.17961121 246.27484131 C-225.70129056 244.71743719 -226.22434641 243.16049358 -226.74865723 241.60397339 C-227.5668609 239.17455156 -228.3811083 236.74383578 -229.19433594 234.31274414 C-231.64163412 227.00107498 -234.10201957 219.69390931 -236.57421875 212.390625 C-236.94667725 211.28565674 -237.31913574 210.18068848 -237.70288086 209.04223633 C-238.38583377 207.01726264 -239.07266459 204.99359147 -239.76391602 202.97143555 C-240.06354248 202.08238525 -240.36316895 201.19333496 -240.671875 200.27734375 C-240.9306543 199.51671631 -241.18943359 198.75608887 -241.45605469 197.97241211 C-242 196 -242 196 -242 193 C-242.66 192.67 -243.32 192.34 -244 192 C-245.06475575 189.30261876 -245.85202585 186.57040143 -246.57983398 183.76489258 C-248.67602031 175.71734985 -251.36877019 167.90145466 -254.125 160.0625 C-255.02569836 157.49166408 -255.92344333 154.91983446 -256.8203125 152.34765625 C-257.21492676 151.22367432 -257.60954102 150.09969238 -258.01611328 148.94165039 C-259.15923584 145.5239125 -259.94764378 142.38145248 -260.4375 138.8125 C-260.623125 137.884375 -260.80875 136.95625 -261 136 C-261.66 135.67 -262.32 135.34 -263 135 C-263.78125 132.671875 -263.78125 132.671875 -264.5 129.75 C-265.42833029 126.01649775 -266.55626036 122.56277686 -268 119 C-268.33666063 117.6675029 -268.6695055 116.33403983 -269 115 C-270.07132321 111.79305543 -271.16012883 108.59362433 -272.27148438 105.40039062 C-273.26926351 102.47105072 -274 100.11794019 -274 97 C-275.485 96.505 -275.485 96.505 -277 96 C-276.34 96 -275.68 96 -275 96 C-275.2673999 95.24380371 -275.5347998 94.48760742 -275.81030273 93.70849609 C-277.02446637 90.26577086 -278.23104852 86.82043502 -279.4375 83.375 C-280.06881836 81.59029297 -280.06881836 81.59029297 -280.71289062 79.76953125 C-281.11572266 78.61582031 -281.51855469 77.46210938 -281.93359375 76.2734375 C-282.30540771 75.21560059 -282.67722168 74.15776367 -283.06030273 73.06787109 C-283.98502516 70.04888902 -284.55595801 67.12261784 -285 64 C-286.485 63.505 -286.485 63.505 -288 63 C-287.34 63 -286.68 63 -286 63 C-286.28875 62.24074219 -286.5775 61.48148437 -286.875 60.69921875 C-287.431875 59.20841797 -287.431875 59.20841797 -288 57.6875 C-288.37125 56.70136719 -288.7425 55.71523438 -289.125 54.69921875 C-290 52 -290 52 -290 49 C-290.66 48.67 -291.32 48.34 -292 48 C-292.7109375 45.8828125 -292.7109375 45.8828125 -293.375 43.125 C-295.64875285 32.76972517 -295.64875285 32.76972517 -301 24 C-300.34 24 -299.68 24 -299 24 C-301.31 17.07 -303.62 10.14 -306 3 C-302.23854995 1.74618332 -298.73367887 1.86054896 -294.81591797 1.87060547 C-293.98137589 1.86885315 -293.1468338 1.86710083 -292.28700256 1.86529541 C-289.52204317 1.86088703 -286.75714757 1.86381294 -283.9921875 1.8671875 C-282.06747424 1.86651379 -280.14276106 1.8655432 -278.2180481 1.86428833 C-274.17790927 1.86281242 -270.13779252 1.8649611 -266.09765625 1.86962891 C-260.93639283 1.87530319 -255.77518168 1.87206117 -250.61392021 1.86605644 C-246.63491427 1.86242834 -242.65592054 1.86360012 -238.67691422 1.86618423 C-236.77524942 1.86684848 -234.87358349 1.86604273 -232.97192001 1.86370468 C-230.30140031 1.86114376 -227.63096285 1.86506786 -224.96044922 1.87060547 C-224.18400558 1.86858124 -223.40756195 1.86655701 -222.60758972 1.86447144 C-217.3387848 1.88454676 -212.22908699 2.34713874 -207 3 C-191.98103396 54.6301066 -191.98103396 54.6301066 -187.20898438 72.89111328 C-184.11865562 84.67585005 -180.86601921 96.41468108 -177.61657333 108.15638161 C-176.36345216 112.68454449 -175.11274 117.21336633 -173.86376953 121.74267578 C-173.51789795 122.99694366 -173.17202637 124.25121155 -172.81567383 125.54348755 C-172.1334902 128.01781735 -171.45136051 130.49216203 -170.76928711 132.96652222 C-169.3860172 137.98294382 -168.00217673 142.99915581 -166.60498047 148.01171875 C-161.82376162 165.16592095 -157.89748365 182.37424021 -154.4453125 199.8359375 C-153.43475887 204.93589102 -152.33709319 209.97616442 -151 215 C-150.34 215 -149.68 215 -149 215 C-149 215.66 -149 216.32 -149 217 C-149.66 217 -150.32 217 -151 217 C-151 218.98 -151 220.96 -151 223 C-150.34 223 -149.68 223 -149 223 C-148.96116699 222.37633545 -148.92233398 221.7526709 -148.88232422 221.11010742 C-148.27437449 213.0331657 -146.81947735 205.22384538 -145.125 197.3125 C-144.97716064 196.61479492 -144.82932129 195.91708984 -144.67700195 195.19824219 C-140.784508 176.95819162 -135.6933509 159.04413364 -130.59832764 141.11090088 C-129.5030175 137.24664493 -128.4273307 133.37693277 -127.34936523 129.5078125 C-126.54148499 126.61217718 -125.72820211 123.71810002 -124.9140625 120.82421875 C-123.39932153 115.43361991 -121.89748387 110.03950864 -120.3984375 104.64453125 C-114.29145095 82.67776887 -108.09608835 60.73802083 -101.80834961 38.82226562 C-101.52856766 37.84488434 -101.24878571 36.86750305 -100.96052551 35.86050415 C-100.41273807 33.95313322 -99.86122402 32.04682801 -99.30570984 30.14169312 C-98.00631797 25.66083866 -96.78454132 21.18542216 -95.72607422 16.64111328 C-95.42031715 15.38531212 -95.42031715 15.38531212 -95.10838318 14.10414124 C-94.73279835 12.54454544 -94.38115484 10.97890252 -94.05873108 9.40745544 C-93.54663086 7.32641602 -93.54663086 7.32641602 -92 4 C-87.59942446 2.02156649 -83.51525265 1.7562377 -78.734375 1.8046875 C-77.59742188 1.81113281 -76.46046875 1.81757813 -75.2890625 1.82421875 C-74.12117187 1.84097656 -72.95328125 1.85773438 -71.75 1.875 C-70.56664062 1.88402344 -69.38328125 1.89304687 -68.1640625 1.90234375 C-65.98140408 1.91974535 -63.79877172 1.94126167 -61.61621094 1.96826172 C-59.74424848 1.99097123 -57.87210021 2 -56 2 C-37.33333333 2 -18.66666667 2 0 2 C0 1.34 0 0.68 0 0 Z " fill="#28D3E3" transform="translate(808,369)"/>
<path d="M0 0 C0.66 0 1.32 0 2 0 C2 0.66 2 1.32 2 2 C2.99 2.33 3.98 2.66 5 3 C4.67 4.65 4.34 6.3 4 8 C3.505 6.02 3.505 6.02 3 4 C-27.03 4 -57.06 4 -88 4 C-84.52828187 1.68552125 -83.21364619 1.76407595 -79.125 1.8046875 C-77.40023437 1.81435547 -77.40023437 1.81435547 -75.640625 1.82421875 C-74.43921875 1.84097656 -73.2378125 1.85773438 -72 1.875 C-70.79859375 1.88402344 -69.5971875 1.89304687 -68.359375 1.90234375 C-66.13277265 1.91981709 -63.90619618 1.94138302 -61.6796875 1.96826172 C-59.78656155 1.99068395 -57.89325873 2 -56 2 C-37.33333333 2 -18.66666667 2 0 2 C0 1.34 0 0.68 0 0 Z " fill="#2FC7D5" transform="translate(808,369)"/>
<path d="M0 0 C-0.33 0.66 -0.66 1.32 -1 2 C-3.42089844 2.68603516 -3.42089844 2.68603516 -6.609375 3.2890625 C-8.33027344 3.61777344 -8.33027344 3.61777344 -10.0859375 3.953125 C-11.89964844 4.28570312 -11.89964844 4.28570312 -13.75 4.625 C-14.94367188 4.85445313 -16.13734375 5.08390625 -17.3671875 5.3203125 C-27.0945476 7.14827279 -27.0945476 7.14827279 -32 7 C-28.91190305 5.23537317 -27.76687864 5 -24 5 C-24 4.34 -24 3.68 -24 3 C-15.91038514 1.04170706 -8.34525522 -0.51917486 0 0 Z " fill="#BDBCBC" transform="translate(452,110)"/>
<path d="M0 0 C0.66 0 1.32 0 2 0 C2 0.66 2 1.32 2 2 C2.99 2.33 3.98 2.66 5 3 C4.67 4.65 4.34 6.3 4 8 C3.67 6.68 3.34 5.36 3 4 C-5.58 4 -14.16 4 -23 4 C-23 3.34 -23 2.68 -23 2 C-15.41 2 -7.82 2 0 2 C0 1.34 0 0.68 0 0 Z " fill="#36C8D4" transform="translate(808,369)"/>
<path d="M0 0 C1.9375 0.6875 1.9375 0.6875 4 2 C5.97005677 6.33412489 4.22469826 9.99219716 2.69140625 14.20703125 C2.46324219 14.79871094 2.23507813 15.39039063 2 16 C1.67 16 1.34 16 1 16 C1.01740234 15.02160156 1.01740234 15.02160156 1.03515625 14.0234375 C1.08470994 9.2238086 0.99413751 4.72215315 0 0 Z M2 4 C3 6 3 6 3 6 Z " fill="#BDBCBC" transform="translate(252,837)"/>
<path d="M0 0 C0.99 0.33 1.98 0.66 3 1 C4.01953125 3.1796875 4.01953125 3.1796875 4.8125 5.875 C5.08707031 6.75929688 5.36164062 7.64359375 5.64453125 8.5546875 C6 11 6 11 4 14 C3.71125 13.21625 3.4225 12.4325 3.125 11.625 C2.15087746 8.90328368 2.15087746 8.90328368 0 7 C0.66 7 1.32 7 2 7 C1.34 4.69 0.68 2.38 0 0 Z " fill="#38C6D9" transform="translate(507,386)"/>
<path d="M0 0 C5.50808397 0.59015185 10.64878069 1.56663769 16 3 C15.67 3.66 15.34 4.32 15 5 C9.33895411 4.50341703 5.12325529 3.45489316 0 1 C0 0.67 0 0.34 0 0 Z " fill="#BCBCBD" transform="translate(656,132)"/>
<path d="M0 0 C0.99 0 1.98 0 3 0 C5 3 5 3 4.75 5.0625 C4 7 4 7 2 9 C1.34 6.03 0.68 3.06 0 0 Z " fill="#2FCBDC" transform="translate(555,529)"/>
<path d="M0 0 C2.74060659 2.74060659 3.21038333 5.24932082 4 9 C3.01 10.485 3.01 10.485 2 12 C1.87625 11.030625 1.7525 10.06125 1.625 9.0625 C1.41875 8.051875 1.2125 7.04125 1 6 C0.34 5.67 -0.32 5.34 -1 5 C-0.67 3.35 -0.34 1.7 0 0 Z " fill="#31CFDF" transform="translate(546,499)"/>
<path d="M0 0 C0.66 0 1.32 0 2 0 C2 0.66 2 1.32 2 2 C2.99 2.33 3.98 2.66 5 3 C4.67 4.65 4.34 6.3 4 8 C3.67 6.68 3.34 5.36 3 4 C0.69 4 -1.62 4 -4 4 C-3.34 3.525625 -2.68 3.05125 -2 2.5625 C-1.34 2.046875 -0.68 1.53125 0 1 C0 0.67 0 0.34 0 0 Z " fill="#5AC7D0" transform="translate(808,369)"/>
<path d="M0 0 C4.87685861 1.35468295 6.48592381 3.71675909 9 8 C8.01 8 7.02 8 6 8 C4.39453125 6.25 4.39453125 6.25 2.8125 4 C2.28269531 3.2575 1.75289062 2.515 1.20703125 1.75 C0.80871094 1.1725 0.41039062 0.595 0 0 Z " fill="#BDBCBC" transform="translate(778,199)"/>
<path d="M0 0 C1.46015291 0.28241641 2.91809793 0.57626614 4.375 0.875 C5.18710937 1.03742187 5.99921875 1.19984375 6.8359375 1.3671875 C9 2 9 2 11 4 C9.54054712 3.91291331 8.08234132 3.80473093 6.625 3.6875 C5.81289063 3.62949219 5.00078125 3.57148437 4.1640625 3.51171875 C2 3 2 3 0 0 Z " fill="#BFBDBD" transform="translate(370,901)"/>
<path d="M0 0 C2 3 2 3 1.625 5.6875 C1.41875 6.450625 1.2125 7.21375 1 8 C0.34 8 -0.32 8 -1 8 C-1.33 8.99 -1.66 9.98 -2 11 C-1 3.57142857 -1 3.57142857 0 0 Z " fill="#BDBCBD" transform="translate(568,937)"/>
<path d="M0 0 C2.31 0.33 4.62 0.66 7 1 C7 1.66 7 2.32 7 3 C7.66 3.33 8.32 3.66 9 4 C4.545 3.01 4.545 3.01 0 2 C0 1.34 0 0.68 0 0 Z " fill="#BDBCBC" transform="translate(925,471)"/>
<path d="M0 0 C3.16115776 1.36983503 3.9927092 1.9890638 6 5 C5.67 5.99 5.34 6.98 5 8 C4.16382818 6.8562364 3.33113541 5.70992861 2.5 4.5625 C2.0359375 3.92441406 1.571875 3.28632813 1.09375 2.62890625 C0 1 0 1 0 0 Z " fill="#BDBCBC" transform="translate(827,250)"/>
<path d="M0 0 C2.31 0.66 4.62 1.32 7 2 C7 2.66 7 3.32 7 4 C2.545 3.01 2.545 3.01 -2 2 C-1.34 1.34 -0.68 0.68 0 0 Z " fill="#BCBCBD" transform="translate(640,125)"/>
<path d="M0 0 C1.60080151 4.00200378 0.29279692 7.04556236 -1 11 C-1.33 11 -1.66 11 -2 11 C-2.25 3.375 -2.25 3.375 0 0 Z " fill="#BFBDBD" transform="translate(457,89)"/>
<path d="M0 0 C4 1 4 1 4 1 Z " fill="#B9B8B9" transform="translate(520,1006)"/>
<path d="M0 0 C4 1 4 1 4 1 Z " fill="#B2B0B1" transform="translate(469,832)"/>
<path d="M0 0 C4 1 4 1 4 1 Z " fill="#B8B5B6" transform="translate(194,787)"/>
<path d="M0 0 C1 4 1 4 1 4 Z " fill="#B15486" transform="translate(210,580)"/>
<path d="M0 0 C1 4 1 4 1 4 Z " fill="#B15384" transform="translate(209,570)"/>
<path d="M0 0 C1 4 1 4 1 4 Z " fill="#B12972" transform="translate(393,499)"/>
<path d="M0 0 C1 4 1 4 1 4 Z " fill="#B02871" transform="translate(393,494)"/>
<path d="M0 0 C3 1 3 1 3 1 Z " fill="#BBB8BA" transform="translate(516,1006)"/>
<path d="M0 0 C0.33 0.66 0.66 1.32 1 2 C0.34 1.67 -0.32 1.34 -1 1 C-0.67 0.67 -0.34 0.34 0 0 Z " fill="#B8B6B8" transform="translate(115,644)"/>
<path d="M0 0 C3 1 3 1 3 1 Z " fill="#B9B9B9" transform="translate(99,598)"/>
<path d="M0 0 C3 1 3 1 3 1 Z " fill="#B8B7B8" transform="translate(72,591)"/>
<path d="" fill="#45C2CF" transform="translate(0,0)"/>
<path d="" fill="#B25687" transform="translate(0,0)"/>
<path d="M0 0 C0.66 0.66 1.32 1.32 2 2 C1.34 2 0.68 2 0 2 C0 1.34 0 0.68 0 0 Z " fill="#48C1D1" transform="translate(563,565)"/>
<path d="" fill="#AF2870" transform="translate(0,0)"/>
<path d="" fill="#AD2771" transform="translate(0,0)"/>
<path d="" fill="#B12A72" transform="translate(0,0)"/>
<path d="" fill="#30D3E0" transform="translate(0,0)"/>
<path d="" fill="#4ACFD9" transform="translate(0,0)"/>
<path d="M0 0 C0.66 0 1.32 0 2 0 C1.67 0.66 1.34 1.32 1 2 C0.67 1.34 0.34 0.68 0 0 Z " fill="#5FAEC3" transform="translate(521,436)"/>
<path d="M0 0 C0.33 0.66 0.66 1.32 1 2 C0.34 1.67 -0.32 1.34 -1 1 C-0.67 0.67 -0.34 0.34 0 0 Z " fill="#69A4BB" transform="translate(513,414)"/>
<path d="M0 0 C0.33 0.66 0.66 1.32 1 2 C0.34 1.67 -0.32 1.34 -1 1 C-0.67 0.67 -0.34 0.34 0 0 Z " fill="#64A0B8" transform="translate(509,397)"/>
<path d="M0 0 C3 1 3 1 3 1 Z " fill="#55C7D0" transform="translate(789,369)"/>
<path d="M0 0 C2 1 2 1 2 1 Z " fill="#B8B6BA" transform="translate(532,1006)"/>
<path d="M0 0 C2 1 2 1 2 1 Z " fill="#B8B8B9" transform="translate(528,1006)"/>
<path d="M0 0 C2 1 2 1 2 1 Z " fill="#B7B6B7" transform="translate(484,1006)"/>
<path d="M0 0 C2 1 2 1 2 1 Z " fill="#ABAAA9" transform="translate(275,950)"/>
<path d="M0 0 C2 1 2 1 2 1 Z " fill="#B1B2B0" transform="translate(325,945)"/>
<path d="M0 0 C2 1 2 1 2 1 Z " fill="#BCB9B9" transform="translate(439,923)"/>
<path d="M0 0 C2 1 2 1 2 1 Z " fill="#B9B7B8" transform="translate(609,917)"/>
<path d="" fill="#AAABAB" transform="translate(0,0)"/>
<path d="" fill="#B3B4B5" transform="translate(0,0)"/>
<path d="M0 0 C2 1 2 1 2 1 Z " fill="#B4B6B5" transform="translate(552,832)"/>
<path d="M0 0 C2 1 2 1 2 1 Z " fill="#B1B6B5" transform="translate(594,824)"/>
<path d="M0 0 C2 1 2 1 2 1 Z " fill="#B5B6B6" transform="translate(641,808)"/>
<path d="M0 0 C2 1 2 1 2 1 Z " fill="#B1AFB0" transform="translate(366,800)"/>
<path d="M0 0 C2 1 2 1 2 1 Z " fill="#B4B3B2" transform="translate(855,797)"/>
<path d="M0 0 C2 1 2 1 2 1 Z " fill="#B5B5B7" transform="translate(196,790)"/>
<path d="" fill="#ABBCBC" transform="translate(0,0)"/>
<path d="M0 0 C2 1 2 1 2 1 Z " fill="#A63A75" transform="translate(333,686)"/>
<path d="M0 0 C2 1 2 1 2 1 Z " fill="#AB3D79" transform="translate(314,684)"/>
<path d="M0 0 C2 1 2 1 2 1 Z " fill="#AE457F" transform="translate(265,669)"/>
<path d="" fill="#B04B82" transform="translate(0,0)"/>
<path d="M0 0 C2 1 2 1 2 1 Z " fill="#AF5184" transform="translate(246,655)"/>
<path d="" fill="#B9B7B7" transform="translate(0,0)"/>
<path d="M0 0 C2 1 2 1 2 1 Z " fill="#B7B7B7" transform="translate(950,591)"/>
<path d="" fill="#48C0CE" transform="translate(0,0)"/>
<path d="M0 0 C2 1 2 1 2 1 Z " fill="#AF5485" transform="translate(209,578)"/>
<path d="" fill="#32D6E2" transform="translate(0,0)"/>
<path d="" fill="#B12872" transform="translate(0,0)"/>
<path d="" fill="#AD2771" transform="translate(0,0)"/>
<path d="" fill="#B8B8B9" transform="translate(0,0)"/>
<path d="" fill="#B04F81" transform="translate(0,0)"/>
<path d="" fill="#4BBFCF" transform="translate(0,0)"/>
<path d="M0 0 C2 1 2 1 2 1 Z " fill="#4EBBCC" transform="translate(552,537)"/>
<path d="" fill="#B79EAC" transform="translate(0,0)"/>
<path d="" fill="#AEB8BA" transform="translate(0,0)"/>
<path d="" fill="#B89DAC" transform="translate(0,0)"/>
<path d="" fill="#4FBDCC" transform="translate(0,0)"/>
<path d="" fill="#31D3E2" transform="translate(0,0)"/>
<path d="" fill="#AEBCBE" transform="translate(0,0)"/>
<path d="" fill="#B6A2AF" transform="translate(0,0)"/>
<path d="" fill="#AF2870" transform="translate(0,0)"/>
<path d="" fill="#B02972" transform="translate(0,0)"/>
<path d="M0 0 C2 1 2 1 2 1 Z " fill="#BAB8B9" transform="translate(73,475)"/>
<path d="" fill="#AF2970" transform="translate(0,0)"/>
<path d="" fill="#56B8C6" transform="translate(0,0)"/>
<path d="" fill="#42D1D9" transform="translate(0,0)"/>
<path d="M0 0 C2 1 2 1 2 1 Z " fill="#BBBABB" transform="translate(98,465)"/>
<path d="" fill="#AABDC1" transform="translate(0,0)"/>
<path d="" fill="#47D0D8" transform="translate(0,0)"/>
<path d="" fill="#AF2B73" transform="translate(0,0)"/>
<path d="" fill="#4BCFDB" transform="translate(0,0)"/>
<path d="" fill="#B9B7B9" transform="translate(0,0)"/>
<path d="" fill="#AE2972" transform="translate(0,0)"/>
<path d="" fill="#51D0D8" transform="translate(0,0)"/>
<path d="" fill="#50CED9" transform="translate(0,0)"/>
<path d="" fill="#A0BCBF" transform="translate(0,0)"/>
<path d="" fill="#AB2970" transform="translate(0,0)"/>
<path d="" fill="#33CEDB" transform="translate(0,0)"/>
<path d="" fill="#A9286D" transform="translate(0,0)"/>
<path d="" fill="#6C99B5" transform="translate(0,0)"/>
<path d="" fill="#8CC2C6" transform="translate(0,0)"/>
<path d="" fill="#86BFC3" transform="translate(0,0)"/>
<path d="M0 0 C2 1 2 1 2 1 Z " fill="#B6B7B6" transform="translate(82,347)"/>
<path d="M0 0 C2 1 2 1 2 1 Z " fill="#ACAEAF" transform="translate(941,273)"/>
<path d="M0 0 C2 1 2 1 2 1 Z " fill="#B5B4B6" transform="translate(868,260)"/>
<path d="M0 0 C2 1 2 1 2 1 Z " fill="#B4B4B5" transform="translate(882,256)"/>
<path d="M0 0 C2 1 2 1 2 1 Z " fill="#B3B0B1" transform="translate(348,225)"/>
<path d="M0 0 C2 1 2 1 2 1 Z " fill="#B4B3B3" transform="translate(438,191)"/>
<path d="M0 0 C2 1 2 1 2 1 Z " fill="#B3B5B5" transform="translate(579,190)"/>
<path d="M0 0 C2 1 2 1 2 1 Z " fill="#B6B6B6" transform="translate(368,128)"/>
<path d="M0 0 C2 1 2 1 2 1 Z " fill="#B7B7B8" transform="translate(629,120)"/>
<path d="M0 0 C2 1 2 1 2 1 Z " fill="#B7BAB9" transform="translate(580,108)"/>
<path d="" fill="#B5B5B4" transform="translate(0,0)"/>
<path d="" fill="#B7B6BA" transform="translate(0,0)"/>
<path d="" fill="#B8B8B8" transform="translate(0,0)"/>
<path d="" fill="#BAB9B6" transform="translate(0,0)"/>
<path d="" fill="#BAB6BB" transform="translate(0,0)"/>
<path d="" fill="#BABAB9" transform="translate(0,0)"/>
<path d="" fill="#B8B8BA" transform="translate(0,0)"/>
<path d="" fill="#BAB8B9" transform="translate(0,0)"/>
<path d="" fill="#BBBABC" transform="translate(0,0)"/>
<path d="" fill="#B9B8B9" transform="translate(0,0)"/>
<path d="" fill="#B8B7B9" transform="translate(0,0)"/>
<path d="" fill="#B8BAB9" transform="translate(0,0)"/>
<path d="" fill="#B9B5B9" transform="translate(0,0)"/>
<path d="" fill="#B1B4B2" transform="translate(0,0)"/>
<path d="" fill="#B6B7B7" transform="translate(0,0)"/>
<path d="" fill="#B4B2B3" transform="translate(0,0)"/>
<path d="" fill="#B5B4B5" transform="translate(0,0)"/>
<path d="" fill="#B7B5B7" transform="translate(0,0)"/>
<path d="" fill="#B7B5B8" transform="translate(0,0)"/>
<path d="" fill="#A9A7A5" transform="translate(0,0)"/>
<path d="" fill="#A8A8AB" transform="translate(0,0)"/>
<path d="" fill="#ACABAD" transform="translate(0,0)"/>
<path d="" fill="#A8A8A7" transform="translate(0,0)"/>
<path d="" fill="#A7A5A6" transform="translate(0,0)"/>
<path d="" fill="#AEADAE" transform="translate(0,0)"/>
<path d="" fill="#ACADAD" transform="translate(0,0)"/>
<path d="" fill="#AEABAD" transform="translate(0,0)"/>
<path d="" fill="#ADAAAC" transform="translate(0,0)"/>
<path d="" fill="#AEADAC" transform="translate(0,0)"/>
<path d="" fill="#B1B2B1" transform="translate(0,0)"/>
<path d="" fill="#B3B1B2" transform="translate(0,0)"/>
<path d="" fill="#AFADAE" transform="translate(0,0)"/>
<path d="" fill="#B0B0B2" transform="translate(0,0)"/>
<path d="" fill="#A6A4A6" transform="translate(0,0)"/>
<path d="" fill="#B7BBBA" transform="translate(0,0)"/>
<path d="" fill="#B4B2B2" transform="translate(0,0)"/>
<path d="" fill="#B4B3B3" transform="translate(0,0)"/>
<path d="" fill="#ABABAD" transform="translate(0,0)"/>
<path d="" fill="#A8A8AB" transform="translate(0,0)"/>
<path d="" fill="#BBBAB9" transform="translate(0,0)"/>
<path d="" fill="#ACAAAA" transform="translate(0,0)"/>
<path d="" fill="#ABA8AA" transform="translate(0,0)"/>
<path d="" fill="#ABABAB" transform="translate(0,0)"/>
<path d="" fill="#A9ABAA" transform="translate(0,0)"/>
<path d="" fill="#BABBBA" transform="translate(0,0)"/>
<path d="" fill="#B5B6B7" transform="translate(0,0)"/>
<path d="" fill="#B9B6B7" transform="translate(0,0)"/>
<path d="" fill="#B5B8B7" transform="translate(0,0)"/>
<path d="" fill="#B8B7B8" transform="translate(0,0)"/>
<path d="" fill="#B8B8B8" transform="translate(0,0)"/>
<path d="" fill="#B8B9B6" transform="translate(0,0)"/>
<path d="" fill="#B9B9B9" transform="translate(0,0)"/>
<path d="" fill="#B7B3B5" transform="translate(0,0)"/>
<path d="" fill="#B7B9B8" transform="translate(0,0)"/>
<path d="" fill="#B7B8B5" transform="translate(0,0)"/>
<path d="" fill="#BBBABB" transform="translate(0,0)"/>
<path d="" fill="#B9B9B9" transform="translate(0,0)"/>
<path d="" fill="#B7B7B6" transform="translate(0,0)"/>
<path d="" fill="#BBB9B9" transform="translate(0,0)"/>
<path d="" fill="#BBB9B9" transform="translate(0,0)"/>
<path d="" fill="#BCBCBC" transform="translate(0,0)"/>
<path d="" fill="#B4B2B4" transform="translate(0,0)"/>
<path d="" fill="#B1B1B3" transform="translate(0,0)"/>
<path d="" fill="#B6B4B6" transform="translate(0,0)"/>
<path d="" fill="#B4B3B6" transform="translate(0,0)"/>
<path d="" fill="#B6B6B6" transform="translate(0,0)"/>
<path d="" fill="#B7BCBB" transform="translate(0,0)"/>
<path d="" fill="#B8BABA" transform="translate(0,0)"/>
<path d="" fill="#B3B2B2" transform="translate(0,0)"/>
<path d="" fill="#B6B4B2" transform="translate(0,0)"/>
<path d="" fill="#B3B4B3" transform="translate(0,0)"/>
<path d="" fill="#B2B0B1" transform="translate(0,0)"/>
<path d="" fill="#B5B4B2" transform="translate(0,0)"/>
<path d="" fill="#B8B6B8" transform="translate(0,0)"/>
<path d="" fill="#B7B7B8" transform="translate(0,0)"/>
<path d="" fill="#B2B4B3" transform="translate(0,0)"/>
<path d="" fill="#B6B5B4" transform="translate(0,0)"/>
<path d="" fill="#B9B8B9" transform="translate(0,0)"/>
<path d="" fill="#B1B4B3" transform="translate(0,0)"/>
<path d="" fill="#B1B0AE" transform="translate(0,0)"/>
<path d="" fill="#B3B4B5" transform="translate(0,0)"/>
<path d="" fill="#A3A4A5" transform="translate(0,0)"/>
<path d="" fill="#A7A4A8" transform="translate(0,0)"/>
<path d="" fill="#B6B5B8" transform="translate(0,0)"/>
<path d="" fill="#AFADAE" transform="translate(0,0)"/>
<path d="" fill="#B5B4B3" transform="translate(0,0)"/>
<path d="" fill="#B1B8B8" transform="translate(0,0)"/>
<path d="" fill="#B1AEAC" transform="translate(0,0)"/>
<path d="" fill="#B1ADAF" transform="translate(0,0)"/>
<path d="" fill="#B3B7B6" transform="translate(0,0)"/>
<path d="" fill="#B7B5B7" transform="translate(0,0)"/>
<path d="" fill="#B2B5B6" transform="translate(0,0)"/>
<path d="" fill="#B2B1AD" transform="translate(0,0)"/>
<path d="" fill="#B3B7B8" transform="translate(0,0)"/>
<path d="" fill="#B4BAB9" transform="translate(0,0)"/>
<path d="" fill="#B3B1B1" transform="translate(0,0)"/>
<path d="" fill="#B2B3B4" transform="translate(0,0)"/>
<path d="" fill="#B2B1B2" transform="translate(0,0)"/>
<path d="" fill="#B5B4B6" transform="translate(0,0)"/>
<path d="" fill="#A6A6A7" transform="translate(0,0)"/>
<path d="" fill="#B2B9B5" transform="translate(0,0)"/>
<path d="" fill="#B6B3B5" transform="translate(0,0)"/>
<path d="" fill="#B7B6B6" transform="translate(0,0)"/>
<path d="" fill="#B6B5B5" transform="translate(0,0)"/>
<path d="" fill="#B4B7B8" transform="translate(0,0)"/>
<path d="" fill="#B7B8B5" transform="translate(0,0)"/>
<path d="" fill="#B9B9BB" transform="translate(0,0)"/>
<path d="" fill="#B1B8BA" transform="translate(0,0)"/>
<path d="" fill="#A9A5A7" transform="translate(0,0)"/>
<path d="" fill="#B2BABB" transform="translate(0,0)"/>
<path d="" fill="#B4B3B3" transform="translate(0,0)"/>
<path d="" fill="#A8A8AA" transform="translate(0,0)"/>
<path d="" fill="#AFB8BC" transform="translate(0,0)"/>
<path d="" fill="#B1BAB9" transform="translate(0,0)"/>
<path d="" fill="#B7B0B4" transform="translate(0,0)"/>
<path d="" fill="#B4ADB3" transform="translate(0,0)"/>
<path d="" fill="#B2BBBB" transform="translate(0,0)"/>
<path d="" fill="#B3B7B8" transform="translate(0,0)"/>
<path d="" fill="#A6A6A5" transform="translate(0,0)"/>
<path d="" fill="#A5A7A5" transform="translate(0,0)"/>
<path d="" fill="#A6A9A7" transform="translate(0,0)"/>
<path d="" fill="#A6A9A8" transform="translate(0,0)"/>
<path d="" fill="#AEADAE" transform="translate(0,0)"/>
<path d="" fill="#B0AEAD" transform="translate(0,0)"/>
<path d="" fill="#B5ACB2" transform="translate(0,0)"/>
<path d="" fill="#B8A5AF" transform="translate(0,0)"/>
<path d="" fill="#B8ABB0" transform="translate(0,0)"/>
<path d="" fill="#AEBCC1" transform="translate(0,0)"/>
<path d="" fill="#B8A8B3" transform="translate(0,0)"/>
<path d="" fill="#ACBBBD" transform="translate(0,0)"/>
<path d="" fill="#B7A2AC" transform="translate(0,0)"/>
<path d="" fill="#BAA4B0" transform="translate(0,0)"/>
<path d="" fill="#B5B4B3" transform="translate(0,0)"/>
<path d="" fill="#B5A3AF" transform="translate(0,0)"/>
<path d="" fill="#BAB8B6" transform="translate(0,0)"/>
<path d="" fill="#A93B76" transform="translate(0,0)"/>
<path d="" fill="#A93A75" transform="translate(0,0)"/>
<path d="" fill="#A83B76" transform="translate(0,0)"/>
<path d="" fill="#AA3C79" transform="translate(0,0)"/>
<path d="" fill="#A93F77" transform="translate(0,0)"/>
<path d="" fill="#B9B7B7" transform="translate(0,0)"/>
<path d="" fill="#B8B7B6" transform="translate(0,0)"/>
<path d="" fill="#AEBDBC" transform="translate(0,0)"/>
<path d="" fill="#42D0D7" transform="translate(0,0)"/>
<path d="" fill="#44D2D7" transform="translate(0,0)"/>
<path d="" fill="#3CD0D6" transform="translate(0,0)"/>
<path d="" fill="#3CD0D9" transform="translate(0,0)"/>
<path d="" fill="#3AD1D8" transform="translate(0,0)"/>
<path d="" fill="#3ACDD9" transform="translate(0,0)"/>
<path d="" fill="#3ACCD4" transform="translate(0,0)"/>
<path d="" fill="#A5366E" transform="translate(0,0)"/>
<path d="" fill="#AA3F79" transform="translate(0,0)"/>
<path d="" fill="#A33773" transform="translate(0,0)"/>
<path d="" fill="#AA4280" transform="translate(0,0)"/>
<path d="" fill="#B8B8B9" transform="translate(0,0)"/>
<path d="" fill="#BBBABA" transform="translate(0,0)"/>
<path d="" fill="#B9B8B9" transform="translate(0,0)"/>
<path d="" fill="#46CED9" transform="translate(0,0)"/>
<path d="" fill="#AC447C" transform="translate(0,0)"/>
<path d="" fill="#49CDD8" transform="translate(0,0)"/>
<path d="" fill="#3ECFDA" transform="translate(0,0)"/>
<path d="" fill="#B7B7B6" transform="translate(0,0)"/>
<path d="" fill="#A5346F" transform="translate(0,0)"/>
<path d="" fill="#3FC6D1" transform="translate(0,0)"/>
<path d="" fill="#B24A83" transform="translate(0,0)"/>
<path d="" fill="#BCB8BD" transform="translate(0,0)"/>
<path d="" fill="#ADBEC0" transform="translate(0,0)"/>
<path d="" fill="#AABDBC" transform="translate(0,0)"/>
<path d="" fill="#A03470" transform="translate(0,0)"/>
<path d="" fill="#B05286" transform="translate(0,0)"/>
<path d="" fill="#41C0CC" transform="translate(0,0)"/>
<path d="" fill="#9F3573" transform="translate(0,0)"/>
<path d="" fill="#B25C89" transform="translate(0,0)"/>
<path d="" fill="#ACBABE" transform="translate(0,0)"/>
<path d="" fill="#B1588A" transform="translate(0,0)"/>
<path d="" fill="#B35687" transform="translate(0,0)"/>
<path d="" fill="#B6B7B8" transform="translate(0,0)"/>
<path d="" fill="#B8B7B8" transform="translate(0,0)"/>
<path d="" fill="#A8BCBE" transform="translate(0,0)"/>
<path d="" fill="#47BECD" transform="translate(0,0)"/>
<path d="" fill="#41C1CC" transform="translate(0,0)"/>
<path d="" fill="#3EC3D0" transform="translate(0,0)"/>
<path d="" fill="#42C0CD" transform="translate(0,0)"/>
<path d="" fill="#3EC9CE" transform="translate(0,0)"/>
<path d="" fill="#B15886" transform="translate(0,0)"/>
<path d="" fill="#41C2D0" transform="translate(0,0)"/>
<path d="" fill="#43C4CE" transform="translate(0,0)"/>
<path d="" fill="#B15586" transform="translate(0,0)"/>
<path d="" fill="#40C2D0" transform="translate(0,0)"/>
<path d="" fill="#B2608E" transform="translate(0,0)"/>
<path d="" fill="#B9BAB8" transform="translate(0,0)"/>
<path d="" fill="#B7B8B8" transform="translate(0,0)"/>
<path d="" fill="#42D1DC" transform="translate(0,0)"/>
<path d="" fill="#B55488" transform="translate(0,0)"/>
<path d="" fill="#B35B8C" transform="translate(0,0)"/>
<path d="" fill="#40D1DC" transform="translate(0,0)"/>
<path d="" fill="#40C3D1" transform="translate(0,0)"/>
<path d="" fill="#B9B9B7" transform="translate(0,0)"/>
<path d="" fill="#B05686" transform="translate(0,0)"/>
<path d="" fill="#41C4D1" transform="translate(0,0)"/>
<path d="" fill="#AE2A71" transform="translate(0,0)"/>
<path d="" fill="#B15685" transform="translate(0,0)"/>
<path d="" fill="#B697A7" transform="translate(0,0)"/>
<path d="" fill="#3FD2DB" transform="translate(0,0)"/>
<path d="" fill="#AB276E" transform="translate(0,0)"/>
<path d="" fill="#AC2970" transform="translate(0,0)"/>
<path d="" fill="#AD2B71" transform="translate(0,0)"/>
<path d="" fill="#ABB9BC" transform="translate(0,0)"/>
<path d="" fill="#B6B7B6" transform="translate(0,0)"/>
<path d="" fill="#B02A72" transform="translate(0,0)"/>
<path d="" fill="#ABBCBD" transform="translate(0,0)"/>
<path d="" fill="#B7B9B8" transform="translate(0,0)"/>
<path d="" fill="#43C7D4" transform="translate(0,0)"/>
<path d="" fill="#B8B8B7" transform="translate(0,0)"/>
<path d="" fill="#B9BABA" transform="translate(0,0)"/>
<path d="" fill="#AC2B74" transform="translate(0,0)"/>
<path d="" fill="#AD2B73" transform="translate(0,0)"/>
<path d="" fill="#B25F8F" transform="translate(0,0)"/>
<path d="" fill="#AABCBE" transform="translate(0,0)"/>
<path d="" fill="#B25C8B" transform="translate(0,0)"/>
<path d="" fill="#BAB6B8" transform="translate(0,0)"/>
<path d="" fill="#B5B7B6" transform="translate(0,0)"/>
<path d="" fill="#B5B7B7" transform="translate(0,0)"/>
<path d="" fill="#B5B7B7" transform="translate(0,0)"/>
<path d="" fill="#B7B8B9" transform="translate(0,0)"/>
<path d="" fill="#B9B7B6" transform="translate(0,0)"/>
<path d="" fill="#B8B7B6" transform="translate(0,0)"/>
<path d="" fill="#B05586" transform="translate(0,0)"/>
<path d="" fill="#B7B7B8" transform="translate(0,0)"/>
<path d="" fill="#AB2A73" transform="translate(0,0)"/>
<path d="" fill="#B15C88" transform="translate(0,0)"/>
<path d="" fill="#40D1DB" transform="translate(0,0)"/>
<path d="" fill="#4AC4D2" transform="translate(0,0)"/>
<path d="" fill="#B15485" transform="translate(0,0)"/>
<path d="" fill="#AC2B72" transform="translate(0,0)"/>
<path d="" fill="#B5B7B7" transform="translate(0,0)"/>
<path d="" fill="#39CFDC" transform="translate(0,0)"/>
<path d="" fill="#BA9BAC" transform="translate(0,0)"/>
<path d="" fill="#B5B6B7" transform="translate(0,0)"/>
<path d="" fill="#B4B3B4" transform="translate(0,0)"/>
<path d="" fill="#47C6D5" transform="translate(0,0)"/>
<path d="" fill="#B4B6B6" transform="translate(0,0)"/>
<path d="" fill="#31D6E2" transform="translate(0,0)"/>
<path d="" fill="#4BC4D2" transform="translate(0,0)"/>
<path d="" fill="#B5B4B4" transform="translate(0,0)"/>
<path d="" fill="#AEBBBC" transform="translate(0,0)"/>
<path d="" fill="#30D7E4" transform="translate(0,0)"/>
<path d="" fill="#AF2771" transform="translate(0,0)"/>
<path d="" fill="#B5B4B6" transform="translate(0,0)"/>
<path d="" fill="#2ED6E6" transform="translate(0,0)"/>
<path d="" fill="#AF2871" transform="translate(0,0)"/>
<path d="" fill="#30D6E3" transform="translate(0,0)"/>
<path d="" fill="#B02871" transform="translate(0,0)"/>
<path d="" fill="#B998AB" transform="translate(0,0)"/>
<path d="" fill="#B14F83" transform="translate(0,0)"/>
<path d="" fill="#4EBECA" transform="translate(0,0)"/>
<path d="" fill="#4AC1D4" transform="translate(0,0)"/>
<path d="" fill="#4CBECC" transform="translate(0,0)"/>
<path d="" fill="#40D3DF" transform="translate(0,0)"/>
<path d="" fill="#B35083" transform="translate(0,0)"/>
<path d="" fill="#48C0D2" transform="translate(0,0)"/>
<path d="" fill="#4CBBD0" transform="translate(0,0)"/>
<path d="" fill="#2FD4E3" transform="translate(0,0)"/>
<path d="" fill="#32D7E3" transform="translate(0,0)"/>
<path d="" fill="#B45285" transform="translate(0,0)"/>
<path d="" fill="#4DBFCA" transform="translate(0,0)"/>
<path d="" fill="#4CC2CE" transform="translate(0,0)"/>
<path d="" fill="#4FBCCC" transform="translate(0,0)"/>
<path d="" fill="#3FD4DD" transform="translate(0,0)"/>
<path d="" fill="#AE2A73" transform="translate(0,0)"/>
<path d="" fill="#3DD3DD" transform="translate(0,0)"/>
<path d="" fill="#54BECD" transform="translate(0,0)"/>
<path d="" fill="#50C0CE" transform="translate(0,0)"/>
<path d="" fill="#AF2770" transform="translate(0,0)"/>
<path d="" fill="#4EB8CA" transform="translate(0,0)"/>
<path d="" fill="#AC2772" transform="translate(0,0)"/>
<path d="" fill="#31D5E2" transform="translate(0,0)"/>
<path d="" fill="#43D0DD" transform="translate(0,0)"/>
<path d="" fill="#4DC2CB" transform="translate(0,0)"/>
<path d="" fill="#31D5E1" transform="translate(0,0)"/>
<path d="" fill="#AFBABD" transform="translate(0,0)"/>
<path d="" fill="#B04F83" transform="translate(0,0)"/>
<path d="" fill="#B02972" transform="translate(0,0)"/>
<path d="" fill="#B9B9B7" transform="translate(0,0)"/>
<path d="" fill="#33D5DF" transform="translate(0,0)"/>
<path d="" fill="#B15181" transform="translate(0,0)"/>
<path d="" fill="#B22974" transform="translate(0,0)"/>
<path d="" fill="#4FBECF" transform="translate(0,0)"/>
<path d="" fill="#30D4E2" transform="translate(0,0)"/>
<path d="" fill="#50BCD0" transform="translate(0,0)"/>
<path d="" fill="#B32973" transform="translate(0,0)"/>
<path d="" fill="#3BD2DD" transform="translate(0,0)"/>
<path d="" fill="#B02A72" transform="translate(0,0)"/>
<path d="" fill="#53BBCD" transform="translate(0,0)"/>
<path d="" fill="#32D7E1" transform="translate(0,0)"/>
<path d="" fill="#32D5E1" transform="translate(0,0)"/>
<path d="" fill="#AE2871" transform="translate(0,0)"/>
<path d="" fill="#B6BABA" transform="translate(0,0)"/>
<path d="" fill="#B14D81" transform="translate(0,0)"/>
<path d="" fill="#B04E82" transform="translate(0,0)"/>
<path d="" fill="#ACBCBE" transform="translate(0,0)"/>
<path d="" fill="#51BDCC" transform="translate(0,0)"/>
<path d="" fill="#57B7C6" transform="translate(0,0)"/>
<path d="" fill="#B12773" transform="translate(0,0)"/>
<path d="" fill="#55BECA" transform="translate(0,0)"/>
<path d="" fill="#B2B6B6" transform="translate(0,0)"/>
<path d="" fill="#AE2671" transform="translate(0,0)"/>
<path d="" fill="#AE2770" transform="translate(0,0)"/>
<path d="" fill="#B12872" transform="translate(0,0)"/>
<path d="" fill="#B8B8BA" transform="translate(0,0)"/>
<path d="" fill="#B0BBBD" transform="translate(0,0)"/>
<path d="" fill="#B9B7B8" transform="translate(0,0)"/>
<path d="" fill="#AF2A72" transform="translate(0,0)"/>
<path d="" fill="#B9B9B9" transform="translate(0,0)"/>
<path d="" fill="#BAB8B8" transform="translate(0,0)"/>
<path d="" fill="#B6B6B8" transform="translate(0,0)"/>
<path d="" fill="#33D4E1" transform="translate(0,0)"/>
<path d="" fill="#53B6C6" transform="translate(0,0)"/>
<path d="" fill="#BABAB9" transform="translate(0,0)"/>
<path d="" fill="#B7B6B7" transform="translate(0,0)"/>
<path d="" fill="#B9B8B9" transform="translate(0,0)"/>
<path d="" fill="#B9B8B9" transform="translate(0,0)"/>
<path d="" fill="#57BBCB" transform="translate(0,0)"/>
<path d="" fill="#B8B9B9" transform="translate(0,0)"/>
<path d="" fill="#2ED7E0" transform="translate(0,0)"/>
<path d="" fill="#32D2E2" transform="translate(0,0)"/>
<path d="" fill="#AF5182" transform="translate(0,0)"/>
<path d="" fill="#B7B8B8" transform="translate(0,0)"/>
<path d="" fill="#B9B9B9" transform="translate(0,0)"/>
<path d="" fill="#BCBABA" transform="translate(0,0)"/>
<path d="" fill="#45D5DF" transform="translate(0,0)"/>
<path d="" fill="#BABAB9" transform="translate(0,0)"/>
<path d="" fill="#BBBABB" transform="translate(0,0)"/>
<path d="" fill="#B8B9B9" transform="translate(0,0)"/>
<path d="" fill="#5CB7C4" transform="translate(0,0)"/>
<path d="" fill="#BABBBB" transform="translate(0,0)"/>
<path d="" fill="#33D8E7" transform="translate(0,0)"/>
<path d="" fill="#58BCCA" transform="translate(0,0)"/>
<path d="" fill="#BBBDBC" transform="translate(0,0)"/>
<path d="" fill="#30D3E1" transform="translate(0,0)"/>
<path d="" fill="#59B6C6" transform="translate(0,0)"/>
<path d="" fill="#AF2970" transform="translate(0,0)"/>
<path d="" fill="#5BB8C6" transform="translate(0,0)"/>
<path d="" fill="#AF2B72" transform="translate(0,0)"/>
<path d="" fill="#5EB1C9" transform="translate(0,0)"/>
<path d="" fill="#4CCFDB" transform="translate(0,0)"/>
<path d="" fill="#5BB6C9" transform="translate(0,0)"/>
<path d="" fill="#55B6C9" transform="translate(0,0)"/>
<path d="" fill="#AABEC0" transform="translate(0,0)"/>
<path d="" fill="#A9BDBF" transform="translate(0,0)"/>
<path d="" fill="#2DD2E1" transform="translate(0,0)"/>
<path d="" fill="#AC2970" transform="translate(0,0)"/>
<path d="" fill="#57B0C4" transform="translate(0,0)"/>
<path d="" fill="#46CFDA" transform="translate(0,0)"/>
<path d="" fill="#5EAFC4" transform="translate(0,0)"/>
<path d="" fill="#31D3E2" transform="translate(0,0)"/>
<path d="" fill="#60B3C8" transform="translate(0,0)"/>
<path d="" fill="#B32A73" transform="translate(0,0)"/>
<path d="" fill="#59B1C7" transform="translate(0,0)"/>
<path d="" fill="#32D0DE" transform="translate(0,0)"/>
<path d="" fill="#57B3C7" transform="translate(0,0)"/>
<path d="" fill="#AD2971" transform="translate(0,0)"/>
<path d="" fill="#BB9EAA" transform="translate(0,0)"/>
<path d="" fill="#A8BEBF" transform="translate(0,0)"/>
<path d="" fill="#B25587" transform="translate(0,0)"/>
<path d="" fill="#31D7E2" transform="translate(0,0)"/>
<path d="" fill="#60ABC1" transform="translate(0,0)"/>
<path d="" fill="#2FD2E0" transform="translate(0,0)"/>
<path d="" fill="#4ECFD6" transform="translate(0,0)"/>
<path d="" fill="#5DB0C3" transform="translate(0,0)"/>
<path d="" fill="#AF2A70" transform="translate(0,0)"/>
<path d="" fill="#30D3DF" transform="translate(0,0)"/>
<path d="" fill="#B8B9BA" transform="translate(0,0)"/>
<path d="" fill="#A0BEC3" transform="translate(0,0)"/>
<path d="" fill="#52CED7" transform="translate(0,0)"/>
<path d="" fill="#67A9BD" transform="translate(0,0)"/>
<path d="" fill="#AC2B70" transform="translate(0,0)"/>
<path d="" fill="#63AAC5" transform="translate(0,0)"/>
<path d="" fill="#6AA3BD" transform="translate(0,0)"/>
<path d="" fill="#AF2B70" transform="translate(0,0)"/>
<path d="" fill="#B88EA4" transform="translate(0,0)"/>
<path d="" fill="#4FCCD6" transform="translate(0,0)"/>
<path d="" fill="#B05D89" transform="translate(0,0)"/>
<path d="" fill="#B98CA2" transform="translate(0,0)"/>
<path d="" fill="#9EBDBE" transform="translate(0,0)"/>
<path d="" fill="#63A5BB" transform="translate(0,0)"/>
<path d="" fill="#A0BFC2" transform="translate(0,0)"/>
<path d="" fill="#6AA4B9" transform="translate(0,0)"/>
<path d="" fill="#30D0DE" transform="translate(0,0)"/>
<path d="" fill="#62A3BB" transform="translate(0,0)"/>
<path d="" fill="#34CFDD" transform="translate(0,0)"/>
<path d="" fill="#60A9BB" transform="translate(0,0)"/>
<path d="" fill="#B88AA6" transform="translate(0,0)"/>
<path d="" fill="#5ACBD4" transform="translate(0,0)"/>
<path d="" fill="#60CBD4" transform="translate(0,0)"/>
<path d="" fill="#5AC8D1" transform="translate(0,0)"/>
<path d="" fill="#30D0DF" transform="translate(0,0)"/>
<path d="" fill="#30D0DC" transform="translate(0,0)"/>
<path d="" fill="#B8B6B7" transform="translate(0,0)"/>
<path d="" fill="#9DBEC2" transform="translate(0,0)"/>
<path d="" fill="#64C8D1" transform="translate(0,0)"/>
<path d="" fill="#709DB6" transform="translate(0,0)"/>
<path d="" fill="#9ABFC1" transform="translate(0,0)"/>
<path d="" fill="#64CAD1" transform="translate(0,0)"/>
<path d="" fill="#32D0DA" transform="translate(0,0)"/>
<path d="" fill="#A9276D" transform="translate(0,0)"/>
<path d="" fill="#96BCC3" transform="translate(0,0)"/>
<path d="" fill="#B87FA1" transform="translate(0,0)"/>
<path d="" fill="#94BEC6" transform="translate(0,0)"/>
<path d="" fill="#33CADB" transform="translate(0,0)"/>
<path d="" fill="#AB2B70" transform="translate(0,0)"/>
<path d="" fill="#77C4CB" transform="translate(0,0)"/>
<path d="" fill="#31CAD8" transform="translate(0,0)"/>
<path d="" fill="#B887A3" transform="translate(0,0)"/>
<path d="" fill="#33C4D4" transform="translate(0,0)"/>
<path d="" fill="#B8BBBA" transform="translate(0,0)"/>
<path d="" fill="#857191" transform="translate(0,0)"/>
<path d="" fill="#38C4CE" transform="translate(0,0)"/>
<path d="" fill="#3EC6D0" transform="translate(0,0)"/>
<path d="" fill="#9B3469" transform="translate(0,0)"/>
<path d="" fill="#B09EA2" transform="translate(0,0)"/>
<path d="" fill="#49C9D8" transform="translate(0,0)"/>
<path d="" fill="#42CCD6" transform="translate(0,0)"/>
<path d="" fill="#3AC4CF" transform="translate(0,0)"/>
<path d="" fill="#905781" transform="translate(0,0)"/>
<path d="" fill="#B6B8B8" transform="translate(0,0)"/>
<path d="" fill="#B7B8BA" transform="translate(0,0)"/>
<path d="" fill="#B8B8B7" transform="translate(0,0)"/>
<path d="" fill="#B5B7B8" transform="translate(0,0)"/>
<path d="" fill="#B7B7B6" transform="translate(0,0)"/>
<path d="" fill="#94BEC3" transform="translate(0,0)"/>
<path d="" fill="#B6B6B7" transform="translate(0,0)"/>
<path d="" fill="#98BEC0" transform="translate(0,0)"/>
<path d="" fill="#B6B6B6" transform="translate(0,0)"/>
<path d="" fill="#B6B7B6" transform="translate(0,0)"/>
<path d="" fill="#99BBC0" transform="translate(0,0)"/>
<path d="" fill="#B6B5B4" transform="translate(0,0)"/>
<path d="" fill="#B6B3B4" transform="translate(0,0)"/>
<path d="" fill="#B6B5B8" transform="translate(0,0)"/>
<path d="" fill="#B3B2B4" transform="translate(0,0)"/>
<path d="" fill="#A1B9C0" transform="translate(0,0)"/>
<path d="" fill="#A2BBBD" transform="translate(0,0)"/>
<path d="" fill="#A1BCBC" transform="translate(0,0)"/>
<path d="" fill="#B4A0AB" transform="translate(0,0)"/>
<path d="" fill="#AFAEB1" transform="translate(0,0)"/>
<path d="" fill="#B3B2B4" transform="translate(0,0)"/>
<path d="" fill="#A6B9BF" transform="translate(0,0)"/>
<path d="" fill="#B5A3AC" transform="translate(0,0)"/>
<path d="" fill="#A7BBBC" transform="translate(0,0)"/>
<path d="" fill="#B6A3AD" transform="translate(0,0)"/>
<path d="" fill="#AFB0AF" transform="translate(0,0)"/>
<path d="" fill="#AABABC" transform="translate(0,0)"/>
<path d="" fill="#B5ABB1" transform="translate(0,0)"/>
<path d="" fill="#B0AEAE" transform="translate(0,0)"/>
<path d="" fill="#B6ACB0" transform="translate(0,0)"/>
<path d="" fill="#ACBABD" transform="translate(0,0)"/>
<path d="" fill="#AEB8BD" transform="translate(0,0)"/>
<path d="" fill="#AEB0B1" transform="translate(0,0)"/>
<path d="" fill="#ADADAE" transform="translate(0,0)"/>
<path d="" fill="#B5ADB2" transform="translate(0,0)"/>
<path d="" fill="#B2B9BB" transform="translate(0,0)"/>
<path d="" fill="#B7B0B1" transform="translate(0,0)"/>
<path d="" fill="#AAA8A9" transform="translate(0,0)"/>
<path d="" fill="#BCBAB8" transform="translate(0,0)"/>
<path d="" fill="#B9B9B8" transform="translate(0,0)"/>
<path d="" fill="#B3B6B4" transform="translate(0,0)"/>
<path d="" fill="#B4B6B7" transform="translate(0,0)"/>
<path d="" fill="#B0B7B8" transform="translate(0,0)"/>
<path d="" fill="#AAA9AC" transform="translate(0,0)"/>
<path d="" fill="#B4B3B3" transform="translate(0,0)"/>
<path d="" fill="#B0B1B2" transform="translate(0,0)"/>
<path d="" fill="#B1B7B9" transform="translate(0,0)"/>
<path d="" fill="#B2B1B3" transform="translate(0,0)"/>
<path d="" fill="#A5A3A3" transform="translate(0,0)"/>
<path d="" fill="#B0B0B1" transform="translate(0,0)"/>
<path d="" fill="#ACABA9" transform="translate(0,0)"/>
<path d="" fill="#AFB4B7" transform="translate(0,0)"/>
<path d="" fill="#B3B2B3" transform="translate(0,0)"/>
<path d="" fill="#B2B4B5" transform="translate(0,0)"/>
<path d="" fill="#AFB4B6" transform="translate(0,0)"/>
<path d="" fill="#B0B3B6" transform="translate(0,0)"/>
<path d="" fill="#B4B6B5" transform="translate(0,0)"/>
<path d="" fill="#B1B5B7" transform="translate(0,0)"/>
<path d="" fill="#B3B1B3" transform="translate(0,0)"/>
<path d="" fill="#B3B7B7" transform="translate(0,0)"/>
<path d="" fill="#B2B6B7" transform="translate(0,0)"/>
<path d="" fill="#B4B7B5" transform="translate(0,0)"/>
<path d="" fill="#B5B6B6" transform="translate(0,0)"/>
<path d="" fill="#B5B5B4" transform="translate(0,0)"/>
<path d="" fill="#B3B7B4" transform="translate(0,0)"/>
<path d="" fill="#B5B5B8" transform="translate(0,0)"/>
<path d="" fill="#B4B5B3" transform="translate(0,0)"/>
<path d="" fill="#B4B6B7" transform="translate(0,0)"/>
<path d="" fill="#B3B1B2" transform="translate(0,0)"/>
<path d="" fill="#B1B4B4" transform="translate(0,0)"/>
<path d="" fill="#B8BABA" transform="translate(0,0)"/>
<path d="" fill="#B5B0AF" transform="translate(0,0)"/>
<path d="" fill="#B3B4B5" transform="translate(0,0)"/>
<path d="" fill="#B1B1B3" transform="translate(0,0)"/>
<path d="" fill="#B2B5B6" transform="translate(0,0)"/>
<path d="" fill="#B4B2B3" transform="translate(0,0)"/>
<path d="" fill="#B5B5B6" transform="translate(0,0)"/>
<path d="" fill="#B1B2B4" transform="translate(0,0)"/>
<path d="" fill="#B6B3B1" transform="translate(0,0)"/>
<path d="" fill="#B3B1B3" transform="translate(0,0)"/>
<path d="" fill="#B6B5B4" transform="translate(0,0)"/>
<path d="" fill="#B2B4B3" transform="translate(0,0)"/>
<path d="" fill="#B5B3B4" transform="translate(0,0)"/>
<path d="" fill="#B3B5B5" transform="translate(0,0)"/>
<path d="" fill="#B2B4B4" transform="translate(0,0)"/>
<path d="" fill="#B0B2B3" transform="translate(0,0)"/>
<path d="" fill="#B2B3B4" transform="translate(0,0)"/>
<path d="" fill="#B3B1B1" transform="translate(0,0)"/>
<path d="" fill="#B0AEAF" transform="translate(0,0)"/>
<path d="" fill="#ADACAF" transform="translate(0,0)"/>
<path d="" fill="#ADACAF" transform="translate(0,0)"/>
<path d="" fill="#A8ABAA" transform="translate(0,0)"/>
<path d="" fill="#BBBBBA" transform="translate(0,0)"/>
<path d="" fill="#B5B3B5" transform="translate(0,0)"/>
<path d="" fill="#B8B9B6" transform="translate(0,0)"/>
<path d="" fill="#B7B6B7" transform="translate(0,0)"/>
<path d="" fill="#B6BAB6" transform="translate(0,0)"/>
<path d="" fill="#B3B5B6" transform="translate(0,0)"/>
<path d="" fill="#B9B8B8" transform="translate(0,0)"/>
<path d="" fill="#A1A1A2" transform="translate(0,0)"/>
<path d="" fill="#B5B5B5" transform="translate(0,0)"/>
<path d="" fill="#B4B3B5" transform="translate(0,0)"/>
<path d="" fill="#B8B9B9" transform="translate(0,0)"/>
<path d="" fill="#B9BBB8" transform="translate(0,0)"/>
<path d="" fill="#B8B9B9" transform="translate(0,0)"/>
<path d="" fill="#ABABAB" transform="translate(0,0)"/>
<path d="" fill="#B3B2B2" transform="translate(0,0)"/>
<path d="" fill="#A5A8A7" transform="translate(0,0)"/>
<path d="" fill="#A6A4A7" transform="translate(0,0)"/>
<path d="" fill="#B6B7BA" transform="translate(0,0)"/>
<path d="" fill="#B2B3B5" transform="translate(0,0)"/>
<path d="" fill="#BAB8BA" transform="translate(0,0)"/>
<path d="" fill="#AAAAA8" transform="translate(0,0)"/>
<path d="" fill="#B7BAB6" transform="translate(0,0)"/>
<path d="" fill="#B5B2B2" transform="translate(0,0)"/>
<path d="" fill="#B9B7B8" transform="translate(0,0)"/>
<path d="" fill="#ABABA9" transform="translate(0,0)"/>
<path d="" fill="#AEABAB" transform="translate(0,0)"/>
<path d="" fill="#AEAFB1" transform="translate(0,0)"/>
<path d="" fill="#AFAAAE" transform="translate(0,0)"/>
<path d="" fill="#ACABAC" transform="translate(0,0)"/>
<path d="" fill="#AAAAAA" transform="translate(0,0)"/>
<path d="" fill="#A8A8AA" transform="translate(0,0)"/>
<path d="" fill="#A9AAA8" transform="translate(0,0)"/>
<path d="" fill="#B4B4B4" transform="translate(0,0)"/>
<path d="" fill="#B3B6B6" transform="translate(0,0)"/>
<path d="" fill="#B2B4B6" transform="translate(0,0)"/>
<path d="" fill="#B3B2B4" transform="translate(0,0)"/>
<path d="" fill="#B7B7B9" transform="translate(0,0)"/>
<path d="" fill="#B6B7B7" transform="translate(0,0)"/>
<path d="" fill="#B2B3B3" transform="translate(0,0)"/>
</svg>
